<?xml version="1.0" encoding="utf-8"?>
<!-- Generator: Adobe Illustrator 27.3.1, SVG Export Plug-In . SVG Version: 6.00 Build 0)  -->
<svg version="1.1" id="Layer_1" xmlns="http://www.w3.org/2000/svg" xmlns:xlink="http://www.w3.org/1999/xlink" x="0px" y="0px"
	 viewBox="0 0 874.27 807.96" style="enable-background:new 0 0 874.27 807.96;" xml:space="preserve">
<style type="text/css">
	.st0{opacity:0.2;clip-path:url(#SVGID_00000080168805326766037080000009031214572898246790_);}
	.st1{fill:#A8A8A8;}
</style>
<g>
	<defs>
		<rect id="SVGID_1_" width="874.27" height="807.96"/>
	</defs>
	<clipPath id="SVGID_00000118372100545964187510000000189313084499238076_">
		<use xlink:href="#SVGID_1_"  style="overflow:visible;"/>
	</clipPath>
	<g style="opacity:0.2;clip-path:url(#SVGID_00000118372100545964187510000000189313084499238076_);">
		<g>
			
				<ellipse transform="matrix(0.8441 -0.5362 0.5362 0.8441 -213.2539 502.2239)" class="st1" cx="757" cy="617.83" rx="4.28" ry="4.28"/>
			
				<ellipse transform="matrix(0.8441 -0.5362 0.5362 0.8441 -233.9836 491.3846)" class="st1" cx="728" cy="648.05" rx="4.6" ry="4.6"/>
			
				<ellipse transform="matrix(0.8441 -0.5362 0.5362 0.8441 -253.3036 478.1504)" class="st1" cx="695.58" cy="674.66" rx="4.93" ry="4.93"/>
			
				<ellipse transform="matrix(0.8441 -0.5362 0.5362 0.8441 -270.9777 462.649)" class="st1" cx="660.09" cy="697.3" rx="5.25" ry="5.25"/>
			
				<ellipse transform="matrix(0.8441 -0.5362 0.5362 0.8441 -286.7697 445.0075)" class="st1" cx="621.85" cy="715.64" rx="5.57" ry="5.57"/>
			
				<ellipse transform="matrix(0.8441 -0.5362 0.5362 0.8441 -300.443 425.3517)" class="st1" cx="581.22" cy="729.32" rx="5.89" ry="5.89"/>
			
				<ellipse transform="matrix(0.8441 -0.5362 0.5362 0.8441 -311.7623 403.8109)" class="st1" cx="538.52" cy="738.01" rx="6.21" ry="6.21"/>
			
				<ellipse transform="matrix(0.8441 -0.5362 0.5362 0.8441 -320.4907 380.5103)" class="st1" cx="494.08" cy="741.37" rx="6.53" ry="6.53"/>
			
				<ellipse transform="matrix(0.8441 -0.5362 0.5362 0.8441 -326.2365 356.3137)" class="st1" cx="449.6" cy="739.16" rx="6.85" ry="6.85"/>
			
				<ellipse transform="matrix(0.8441 -0.5362 0.5362 0.8441 -328.8556 332.1416)" class="st1" cx="406.73" cy="731.57" rx="7.18" ry="7.18"/>
			
				<ellipse transform="matrix(0.8441 -0.5362 0.5362 0.8441 -328.4746 308.2286)" class="st1" cx="365.8" cy="718.96" rx="7.5" ry="7.5"/>
			
				<ellipse transform="matrix(0.8441 -0.5362 0.5362 0.8441 -325.2194 284.8089)" class="st1" cx="327.15" cy="701.65" rx="7.82" ry="7.82"/>
			
				<ellipse transform="matrix(0.8441 -0.5362 0.5362 0.8441 -319.2162 262.1177)" class="st1" cx="291.13" cy="679.99" rx="8.14" ry="8.14"/>
			
				<ellipse transform="matrix(0.8441 -0.5362 0.5362 0.8441 -310.591 240.3896)" class="st1" cx="258.08" cy="654.29" rx="8.46" ry="8.46"/>
			
				<ellipse transform="matrix(0.8441 -0.5362 0.5362 0.8441 -299.4704 219.86)" class="st1" cx="228.34" cy="624.9" rx="8.78" ry="8.78"/>
			
				<ellipse transform="matrix(0.8441 -0.5362 0.5362 0.8441 -285.9801 200.7632)" class="st1" cx="202.24" cy="592.16" rx="9.1" ry="9.1"/>
			
				<ellipse transform="matrix(0.8441 -0.5362 0.5362 0.8441 -270.2464 183.3344)" class="st1" cx="180.14" cy="556.39" rx="9.42" ry="9.42"/>
			
				<ellipse transform="matrix(0.8441 -0.5362 0.5362 0.8441 -252.3957 167.8087)" class="st1" cx="162.37" cy="517.93" rx="9.75" ry="9.75"/>
			
				<ellipse transform="matrix(0.8441 -0.5362 0.5362 0.8441 -232.5539 154.4206)" class="st1" cx="149.27" cy="477.11" rx="10.07" ry="10.07"/>
			
				<ellipse transform="matrix(0.8441 -0.5362 0.5362 0.8441 -210.8471 143.4052)" class="st1" cx="141.18" cy="434.28" rx="10.39" ry="10.39"/>
			
				<ellipse transform="matrix(0.8441 -0.5362 0.5362 0.8441 -187.4068 134.9987)" class="st1" cx="138.44" cy="389.77" rx="10.71" ry="10.71"/>
			
				<ellipse transform="matrix(0.8441 -0.5362 0.5362 0.8441 -163.2025 129.6066)" class="st1" cx="141.27" cy="345.45" rx="11.03" ry="11.03"/>
			
				<ellipse transform="matrix(0.8441 -0.5362 0.5362 0.8441 -139.0479 127.3267)" class="st1" cx="149.43" cy="302.77" rx="11.35" ry="11.35"/>
			
				<ellipse transform="matrix(0.8441 -0.5362 0.5362 0.8441 -115.1779 128.0331)" class="st1" cx="162.58" cy="262.08" rx="11.67" ry="11.67"/>
			
				<ellipse transform="matrix(0.8441 -0.5362 0.5362 0.8441 -91.8275 131.5999)" class="st1" cx="180.39" cy="223.71" rx="11.99" ry="11.99"/>
			
				<ellipse transform="matrix(0.8441 -0.5362 0.5362 0.8441 -69.2316 137.9004)" class="st1" cx="202.52" cy="188" rx="12.32" ry="12.32"/>
			
				<ellipse transform="matrix(0.8441 -0.5362 0.5362 0.8441 -47.6251 146.8088)" class="st1" cx="228.64" cy="155.3" rx="12.64" ry="12.64"/>
			
				<ellipse transform="matrix(0.8441 -0.5362 0.5362 0.8441 -27.2428 158.199)" class="st1" cx="258.42" cy="125.95" rx="12.96" ry="12.96"/>
			
				<ellipse transform="matrix(0.8441 -0.5362 0.5362 0.8441 -8.3197 171.9445)" class="st1" cx="291.52" cy="100.28" rx="13.28" ry="13.28"/>
			
				<ellipse transform="matrix(0.8441 -0.5362 0.5362 0.8441 8.9094 187.9196)" class="st1" cx="327.6" cy="78.64" rx="13.6" ry="13.6"/>
			
				<ellipse transform="matrix(0.8441 -0.5362 0.5362 0.8441 24.2096 205.9977)" class="st1" cx="366.34" cy="61.37" rx="13.92" ry="13.92"/>
			
				<ellipse transform="matrix(0.8441 -0.5362 0.5362 0.8441 37.3459 226.0529)" class="st1" cx="407.4" cy="48.81" rx="14.24" ry="14.24"/>
			
				<ellipse transform="matrix(0.8441 -0.5362 0.5362 0.8441 48.0834 247.9588)" class="st1" cx="450.43" cy="41.29" rx="14.56" ry="14.56"/>
			
				<ellipse transform="matrix(0.8441 -0.5362 0.5362 0.8441 56.1827 271.5734)" class="st1" cx="495.09" cy="39.17" rx="14.89" ry="14.89"/>
			
				<ellipse transform="matrix(0.8441 -0.5362 0.5362 0.8441 61.2301 295.8417)" class="st1" cx="539.35" cy="42.63" rx="15.21" ry="15.21"/>
			
				<ellipse transform="matrix(0.8441 -0.5362 0.5362 0.8441 63.1645 320.033)" class="st1" cx="581.91" cy="51.4" rx="15.53" ry="15.53"/>
			
				<ellipse transform="matrix(0.8441 -0.5362 0.5362 0.8441 62.1132 343.911)" class="st1" cx="622.45" cy="65.15" rx="15.85" ry="15.85"/>
			
				<ellipse transform="matrix(0.8441 -0.5362 0.5362 0.8441 58.203 367.2389)" class="st1" cx="660.61" cy="83.53" rx="16.17" ry="16.17"/>
			
				<ellipse transform="matrix(0.8441 -0.5362 0.5362 0.8441 51.5611 389.78)" class="st1" cx="696.05" cy="106.23" rx="16.49" ry="16.49"/>
			
				<ellipse transform="matrix(0.8441 -0.5362 0.5362 0.8441 42.3146 411.298)" class="st1" cx="728.43" cy="132.88" rx="16.81" ry="16.81"/>
			
				<ellipse transform="matrix(0.8441 -0.5362 0.5362 0.8441 30.5905 431.5562)" class="st1" cx="757.4" cy="163.17" rx="17.13" ry="17.13"/>
		</g>
		<g>
			
				<ellipse transform="matrix(0.8441 -0.5362 0.5362 0.8441 -214.988 475.6287)" class="st1" cx="710.4" cy="607.51" rx="4.1" ry="4.1"/>
			
				<ellipse transform="matrix(0.8441 -0.5362 0.5362 0.8441 -234.8171 465.2599)" class="st1" cx="682.66" cy="636.42" rx="4.4" ry="4.4"/>
			
				<ellipse transform="matrix(0.8441 -0.5362 0.5362 0.8441 -253.2979 452.6009)" class="st1" cx="651.65" cy="661.87" rx="4.71" ry="4.71"/>
			
				<ellipse transform="matrix(0.8441 -0.5362 0.5362 0.8441 -270.2041 437.7728)" class="st1" cx="617.7" cy="683.53" rx="5.02" ry="5.02"/>
			
				<ellipse transform="matrix(0.8441 -0.5362 0.5362 0.8441 -285.3102 420.8979)" class="st1" cx="581.12" cy="701.07" rx="5.33" ry="5.33"/>
			
				<ellipse transform="matrix(0.8441 -0.5362 0.5362 0.8441 -298.3894 402.0958)" class="st1" cx="542.25" cy="714.16" rx="5.63" ry="5.63"/>
			
				<ellipse transform="matrix(0.8441 -0.5362 0.5362 0.8441 -309.217 381.4907)" class="st1" cx="501.41" cy="722.48" rx="5.94" ry="5.94"/>
			
				<ellipse transform="matrix(0.8441 -0.5362 0.5362 0.8441 -317.5663 359.2024)" class="st1" cx="458.9" cy="725.69" rx="6.25" ry="6.25"/>
			
				<ellipse transform="matrix(0.8441 -0.5362 0.5362 0.8441 -323.0625 336.057)" class="st1" cx="416.36" cy="723.57" rx="6.56" ry="6.56"/>
			
				<ellipse transform="matrix(0.8441 -0.5362 0.5362 0.8441 -325.5678 312.935)" class="st1" cx="375.34" cy="716.32" rx="6.86" ry="6.86"/>
			
				<ellipse transform="matrix(0.8441 -0.5362 0.5362 0.8441 -325.2034 290.0608)" class="st1" cx="336.19" cy="704.25" rx="7.17" ry="7.17"/>
			
				<ellipse transform="matrix(0.8441 -0.5362 0.5362 0.8441 -322.0895 267.6584)" class="st1" cx="299.22" cy="687.7" rx="7.48" ry="7.48"/>
			
				<ellipse transform="matrix(0.8441 -0.5362 0.5362 0.8441 -316.3471 245.953)" class="st1" cx="264.77" cy="666.97" rx="7.79" ry="7.79"/>
			
				<ellipse transform="matrix(0.8441 -0.5362 0.5362 0.8441 -308.0966 225.1687)" class="st1" cx="233.15" cy="642.39" rx="8.09" ry="8.09"/>
			
				<ellipse transform="matrix(0.8441 -0.5362 0.5362 0.8441 -297.4591 205.5309)" class="st1" cx="204.7" cy="614.28" rx="8.4" ry="8.4"/>
			
				<ellipse transform="matrix(0.8441 -0.5362 0.5362 0.8441 -284.5548 187.2637)" class="st1" cx="179.74" cy="582.96" rx="8.71" ry="8.71"/>
			
				<ellipse transform="matrix(0.8441 -0.5362 0.5362 0.8441 -269.5046 170.592)" class="st1" cx="158.6" cy="548.74" rx="9.01" ry="9.01"/>
			
				<ellipse transform="matrix(0.8441 -0.5362 0.5362 0.8441 -252.4294 155.7408)" class="st1" cx="141.6" cy="511.95" rx="9.32" ry="9.32"/>
			
				<ellipse transform="matrix(0.8441 -0.5362 0.5362 0.8441 -233.4495 142.9343)" class="st1" cx="129.07" cy="472.91" rx="9.63" ry="9.63"/>
			
				<ellipse transform="matrix(0.8441 -0.5362 0.5362 0.8441 -212.6857 132.3974)" class="st1" cx="121.33" cy="431.93" rx="9.94" ry="9.94"/>
			
				<ellipse transform="matrix(0.8441 -0.5362 0.5362 0.8441 -190.2636 124.3561)" class="st1" cx="118.71" cy="389.36" rx="10.24" ry="10.24"/>
			
				<ellipse transform="matrix(0.8441 -0.5362 0.5362 0.8441 -167.1108 119.1982)" class="st1" cx="121.42" cy="346.96" rx="10.55" ry="10.55"/>
			
				<ellipse transform="matrix(0.8441 -0.5362 0.5362 0.8441 -144.0055 117.0174)" class="st1" cx="129.22" cy="306.14" rx="10.86" ry="10.86"/>
			
				<ellipse transform="matrix(0.8441 -0.5362 0.5362 0.8441 -121.1724 117.6931)" class="st1" cx="141.8" cy="267.22" rx="11.17" ry="11.17"/>
			
				<ellipse transform="matrix(0.8441 -0.5362 0.5362 0.8441 -98.8365 121.1049)" class="st1" cx="158.83" cy="230.51" rx="11.47" ry="11.47"/>
			
				<ellipse transform="matrix(0.8441 -0.5362 0.5362 0.8441 -77.2221 127.1317)" class="st1" cx="180.01" cy="196.36" rx="11.78" ry="11.78"/>
			
				<ellipse transform="matrix(0.8441 -0.5362 0.5362 0.8441 -56.5542 135.6532)" class="st1" cx="204.99" cy="165.08" rx="12.09" ry="12.09"/>
			
				<ellipse transform="matrix(0.8441 -0.5362 0.5362 0.8441 -37.0574 146.5485)" class="st1" cx="233.48" cy="137" rx="12.4" ry="12.4"/>
			
				<ellipse transform="matrix(0.8441 -0.5362 0.5362 0.8441 -18.9563 159.697)" class="st1" cx="265.14" cy="112.45" rx="12.7" ry="12.7"/>
			
				<ellipse transform="matrix(0.8441 -0.5362 0.5362 0.8441 -2.4756 174.978)" class="st1" cx="299.66" cy="91.75" rx="13.01" ry="13.01"/>
			
				<ellipse transform="matrix(0.8441 -0.5362 0.5362 0.8441 12.1599 192.2709)" class="st1" cx="336.71" cy="75.23" rx="13.32" ry="13.32"/>
			
				<ellipse transform="matrix(0.8441 -0.5362 0.5362 0.8441 24.7255 211.4548)" class="st1" cx="375.98" cy="63.21" rx="13.62" ry="13.62"/>
			
				<ellipse transform="matrix(0.8441 -0.5362 0.5362 0.8441 34.9966 232.4091)" class="st1" cx="417.15" cy="56.02" rx="13.93" ry="13.93"/>
			
				<ellipse transform="matrix(0.8441 -0.5362 0.5362 0.8441 42.7441 254.9978)" class="st1" cx="459.87" cy="54" rx="14.24" ry="14.24"/>
			
				<ellipse transform="matrix(0.8441 -0.5362 0.5362 0.8441 47.5722 278.2119)" class="st1" cx="502.2" cy="57.3" rx="14.55" ry="14.55"/>
			
				<ellipse transform="matrix(0.8441 -0.5362 0.5362 0.8441 49.4226 301.3524)" class="st1" cx="542.92" cy="65.69" rx="14.85" ry="14.85"/>
			
				<ellipse transform="matrix(0.8441 -0.5362 0.5362 0.8441 48.4169 324.193)" class="st1" cx="581.69" cy="78.84" rx="15.16" ry="15.16"/>
			
				<ellipse transform="matrix(0.8441 -0.5362 0.5362 0.8441 44.6766 346.5075)" class="st1" cx="618.2" cy="96.43" rx="15.47" ry="15.47"/>
			
				<ellipse transform="matrix(0.8441 -0.5362 0.5362 0.8441 38.3232 368.0695)" class="st1" cx="652.1" cy="118.13" rx="15.78" ry="15.78"/>
			
				<ellipse transform="matrix(0.8441 -0.5362 0.5362 0.8441 29.4784 388.6526)" class="st1" cx="683.07" cy="143.64" rx="16.08" ry="16.08"/>
			
				<ellipse transform="matrix(0.8441 -0.5362 0.5362 0.8441 18.2636 408.0309)" class="st1" cx="710.79" cy="172.61" rx="16.39" ry="16.39"/>
		</g>
		<g>
			
				<ellipse transform="matrix(0.8441 -0.5362 0.5362 0.8441 -216.722 449.0338)" class="st1" cx="663.8" cy="597.19" rx="3.91" ry="3.91"/>
			
				<ellipse transform="matrix(0.8441 -0.5362 0.5362 0.8441 -235.6507 439.1357)" class="st1" cx="637.32" cy="624.79" rx="4.2" ry="4.2"/>
			
				<ellipse transform="matrix(0.8441 -0.5362 0.5362 0.8441 -253.292 427.0512)" class="st1" cx="607.72" cy="649.09" rx="4.5" ry="4.5"/>
			
				<ellipse transform="matrix(0.8441 -0.5362 0.5362 0.8441 -269.4306 412.8969)" class="st1" cx="575.31" cy="669.76" rx="4.79" ry="4.79"/>
			
				<ellipse transform="matrix(0.8441 -0.5362 0.5362 0.8441 -283.8505 396.788)" class="st1" cx="540.39" cy="686.51" rx="5.08" ry="5.08"/>
			
				<ellipse transform="matrix(0.8441 -0.5362 0.5362 0.8441 -296.3359 378.8401)" class="st1" cx="503.29" cy="699" rx="5.38" ry="5.38"/>
			
				<ellipse transform="matrix(0.8441 -0.5362 0.5362 0.8441 -306.6716 359.1705)" class="st1" cx="464.3" cy="706.94" rx="5.67" ry="5.67"/>
			
				<ellipse transform="matrix(0.8441 -0.5362 0.5362 0.8441 -314.6418 337.8945)" class="st1" cx="423.73" cy="710.01" rx="5.97" ry="5.97"/>
			
				<ellipse transform="matrix(0.8441 -0.5362 0.5362 0.8441 -319.8884 315.8002)" class="st1" cx="383.11" cy="707.98" rx="6.26" ry="6.26"/>
			
				<ellipse transform="matrix(0.8441 -0.5362 0.5362 0.8441 -322.2799 293.7282)" class="st1" cx="343.96" cy="701.06" rx="6.55" ry="6.55"/>
			
				<ellipse transform="matrix(0.8441 -0.5362 0.5362 0.8441 -321.9322 271.893)" class="st1" cx="306.58" cy="689.54" rx="6.85" ry="6.85"/>
			
				<ellipse transform="matrix(0.8441 -0.5362 0.5362 0.8441 -318.9597 250.5079)" class="st1" cx="271.3" cy="673.74" rx="7.14" ry="7.14"/>
			
				<ellipse transform="matrix(0.8441 -0.5362 0.5362 0.8441 -313.478 229.7881)" class="st1" cx="238.41" cy="653.95" rx="7.43" ry="7.43"/>
			
				<ellipse transform="matrix(0.8441 -0.5362 0.5362 0.8441 -305.6022 209.9478)" class="st1" cx="208.23" cy="630.49" rx="7.73" ry="7.73"/>
			
				<ellipse transform="matrix(0.8441 -0.5362 0.5362 0.8441 -295.4479 191.2019)" class="st1" cx="181.07" cy="603.66" rx="8.02" ry="8.02"/>
			
				<ellipse transform="matrix(0.8441 -0.5362 0.5362 0.8441 -283.1295 173.7642)" class="st1" cx="157.24" cy="573.75" rx="8.31" ry="8.31"/>
			
				<ellipse transform="matrix(0.8441 -0.5362 0.5362 0.8441 -268.7628 157.8496)" class="st1" cx="137.06" cy="541.09" rx="8.61" ry="8.61"/>
			
				<ellipse transform="matrix(0.8441 -0.5362 0.5362 0.8441 -252.463 143.6729)" class="st1" cx="120.83" cy="505.97" rx="8.9" ry="8.9"/>
			
				<ellipse transform="matrix(0.8441 -0.5362 0.5362 0.8441 -234.3452 131.448)" class="st1" cx="108.87" cy="468.71" rx="9.19" ry="9.19"/>
			
				<ellipse transform="matrix(0.8441 -0.5362 0.5362 0.8441 -214.5243 121.3896)" class="st1" cx="101.48" cy="429.59" rx="9.49" ry="9.49"/>
			
				<ellipse transform="matrix(0.8441 -0.5362 0.5362 0.8441 -193.1205 113.7135)" class="st1" cx="98.98" cy="388.95" rx="9.78" ry="9.78"/>
			
				<ellipse transform="matrix(0.8441 -0.5362 0.5362 0.8441 -171.0191 108.7898)" class="st1" cx="101.57" cy="348.48" rx="10.07" ry="10.07"/>
			
				<ellipse transform="matrix(0.8441 -0.5362 0.5362 0.8441 -148.9632 106.7081)" class="st1" cx="109.01" cy="309.51" rx="10.37" ry="10.37"/>
			
				<ellipse transform="matrix(0.8441 -0.5362 0.5362 0.8441 -127.167 107.3531)" class="st1" cx="121.02" cy="272.35" rx="10.66" ry="10.66"/>
			
				<ellipse transform="matrix(0.8441 -0.5362 0.5362 0.8441 -105.8454 110.6099)" class="st1" cx="137.28" cy="237.32" rx="10.95" ry="10.95"/>
			
				<ellipse transform="matrix(0.8441 -0.5362 0.5362 0.8441 -85.2126 116.363)" class="st1" cx="157.49" cy="204.71" rx="11.25" ry="11.25"/>
			
				<ellipse transform="matrix(0.8441 -0.5362 0.5362 0.8441 -65.4833 124.4975)" class="st1" cx="181.35" cy="174.85" rx="11.54" ry="11.54"/>
			
				<ellipse transform="matrix(0.8441 -0.5362 0.5362 0.8441 -46.8719 134.8981)" class="st1" cx="208.54" cy="148.05" rx="11.83" ry="11.83"/>
			
				<ellipse transform="matrix(0.8441 -0.5362 0.5362 0.8441 -29.5929 147.4494)" class="st1" cx="238.76" cy="124.61" rx="12.13" ry="12.13"/>
			
				<ellipse transform="matrix(0.8441 -0.5362 0.5362 0.8441 -13.8607 162.0365)" class="st1" cx="271.71" cy="104.85" rx="12.42" ry="12.42"/>
			
				<ellipse transform="matrix(0.8441 -0.5362 0.5362 0.8441 0.1102 178.5439)" class="st1" cx="307.08" cy="89.08" rx="12.71" ry="12.71"/>
			
				<ellipse transform="matrix(0.8441 -0.5362 0.5362 0.8441 12.1052 196.8567)" class="st1" cx="344.57" cy="77.61" rx="13.01" ry="13.01"/>
			
				<ellipse transform="matrix(0.8441 -0.5362 0.5362 0.8441 21.9098 216.8594)" class="st1" cx="383.87" cy="70.75" rx="13.3" ry="13.3"/>
			
				<ellipse transform="matrix(0.8441 -0.5362 0.5362 0.8441 29.3054 238.4222)" class="st1" cx="424.65" cy="68.82" rx="13.59" ry="13.59"/>
			
				<ellipse transform="matrix(0.8441 -0.5362 0.5362 0.8441 33.9143 260.5821)" class="st1" cx="465.06" cy="71.97" rx="13.89" ry="13.89"/>
			
				<ellipse transform="matrix(0.8441 -0.5362 0.5362 0.8441 35.6807 282.6717)" class="st1" cx="503.93" cy="79.98" rx="14.18" ry="14.18"/>
			
				<ellipse transform="matrix(0.8441 -0.5362 0.5362 0.8441 34.7207 304.4751)" class="st1" cx="540.94" cy="92.53" rx="14.47" ry="14.47"/>
			
				<ellipse transform="matrix(0.8441 -0.5362 0.5362 0.8441 31.1502 325.7762)" class="st1" cx="575.78" cy="109.32" rx="14.77" ry="14.77"/>
			
				<ellipse transform="matrix(0.8441 -0.5362 0.5362 0.8441 25.0854 346.3589)" class="st1" cx="608.14" cy="130.04" rx="15.06" ry="15.06"/>
			
				<ellipse transform="matrix(0.8441 -0.5362 0.5362 0.8441 16.6422 366.0074)" class="st1" cx="637.71" cy="154.39" rx="15.35" ry="15.35"/>
			
				<ellipse transform="matrix(0.8441 -0.5362 0.5362 0.8441 5.9367 384.5056)" class="st1" cx="664.17" cy="182.04" rx="15.65" ry="15.65"/>
		</g>
		<g>
			
				<ellipse transform="matrix(0.8441 -0.5362 0.5362 0.8441 -218.4561 422.4387)" class="st1" cx="617.2" cy="586.88" rx="3.73" ry="3.73"/>
			
				<ellipse transform="matrix(0.8441 -0.5362 0.5362 0.8441 -236.4841 413.0112)" class="st1" cx="591.98" cy="613.17" rx="4" ry="4"/>
			
				<ellipse transform="matrix(0.8441 -0.5362 0.5362 0.8441 -253.2863 401.5019)" class="st1" cx="563.78" cy="636.3" rx="4.28" ry="4.28"/>
			
				<ellipse transform="matrix(0.8441 -0.5362 0.5362 0.8441 -268.6571 388.0209)" class="st1" cx="532.92" cy="656" rx="4.56" ry="4.56"/>
			
				<ellipse transform="matrix(0.8441 -0.5362 0.5362 0.8441 -282.391 372.6784)" class="st1" cx="499.67" cy="671.94" rx="4.84" ry="4.84"/>
			
				<ellipse transform="matrix(0.8441 -0.5362 0.5362 0.8441 -294.2823 355.5842)" class="st1" cx="464.33" cy="683.84" rx="5.12" ry="5.12"/>
			
				<ellipse transform="matrix(0.8441 -0.5362 0.5362 0.8441 -304.1266 336.8508)" class="st1" cx="427.19" cy="691.4" rx="5.4" ry="5.4"/>
			
				<ellipse transform="matrix(0.8441 -0.5362 0.5362 0.8441 -311.7173 316.5865)" class="st1" cx="388.55" cy="694.33" rx="5.68" ry="5.68"/>
			
				<ellipse transform="matrix(0.8441 -0.5362 0.5362 0.8441 -316.7145 295.5437)" class="st1" cx="349.86" cy="692.4" rx="5.96" ry="5.96"/>
			
				<ellipse transform="matrix(0.8441 -0.5362 0.5362 0.8441 -318.992 274.5214)" class="st1" cx="312.57" cy="685.8" rx="6.24" ry="6.24"/>
			
				<ellipse transform="matrix(0.8441 -0.5362 0.5362 0.8441 -318.6608 253.7249)" class="st1" cx="276.98" cy="674.83" rx="6.52" ry="6.52"/>
			
				<ellipse transform="matrix(0.8441 -0.5362 0.5362 0.8441 -315.8298 233.3574)" class="st1" cx="243.37" cy="659.78" rx="6.8" ry="6.8"/>
			
				<ellipse transform="matrix(0.8441 -0.5362 0.5362 0.8441 -310.609 213.6234)" class="st1" cx="212.04" cy="640.94" rx="7.08" ry="7.08"/>
			
				<ellipse transform="matrix(0.8441 -0.5362 0.5362 0.8441 -303.1079 194.7269)" class="st1" cx="183.3" cy="618.59" rx="7.36" ry="7.36"/>
			
				<ellipse transform="matrix(0.8441 -0.5362 0.5362 0.8441 -293.4366 176.8728)" class="st1" cx="157.43" cy="593.03" rx="7.64" ry="7.64"/>
			
				<ellipse transform="matrix(0.8441 -0.5362 0.5362 0.8441 -281.7043 160.2648)" class="st1" cx="134.74" cy="564.55" rx="7.92" ry="7.92"/>
			
				<ellipse transform="matrix(0.8441 -0.5362 0.5362 0.8441 -268.0211 145.1074)" class="st1" cx="115.52" cy="533.45" rx="8.2" ry="8.2"/>
			
				<ellipse transform="matrix(0.8441 -0.5362 0.5362 0.8441 -252.4967 131.605)" class="st1" cx="100.06" cy="500" rx="8.48" ry="8.48"/>
			
				<ellipse transform="matrix(0.8441 -0.5362 0.5362 0.8441 -235.2408 119.9617)" class="st1" cx="88.67" cy="464.5" rx="8.75" ry="8.75"/>
			
				<ellipse transform="matrix(0.8441 -0.5362 0.5362 0.8441 -216.3629 110.3818)" class="st1" cx="81.63" cy="427.25" rx="9.03" ry="9.03"/>
			
				<ellipse transform="matrix(0.8441 -0.5362 0.5362 0.8441 -195.9774 103.0709)" class="st1" cx="79.25" cy="388.54" rx="9.31" ry="9.31"/>
			
				<ellipse transform="matrix(0.8441 -0.5362 0.5362 0.8441 -174.9275 98.3815)" class="st1" cx="81.71" cy="350" rx="9.59" ry="9.59"/>
			
				<ellipse transform="matrix(0.8441 -0.5362 0.5362 0.8441 -153.9207 96.3987)" class="st1" cx="88.81" cy="312.88" rx="9.87" ry="9.87"/>
			
				<ellipse transform="matrix(0.8441 -0.5362 0.5362 0.8441 -133.1616 97.0131)" class="st1" cx="100.24" cy="277.49" rx="10.15" ry="10.15"/>
			
				<ellipse transform="matrix(0.8441 -0.5362 0.5362 0.8441 -112.8543 100.115)" class="st1" cx="115.73" cy="244.12" rx="10.43" ry="10.43"/>
			
				<ellipse transform="matrix(0.8441 -0.5362 0.5362 0.8441 -93.2031 105.5944)" class="st1" cx="134.98" cy="213.07" rx="10.71" ry="10.71"/>
			
				<ellipse transform="matrix(0.8441 -0.5362 0.5362 0.8441 -74.4125 113.3419)" class="st1" cx="157.7" cy="184.63" rx="10.99" ry="10.99"/>
			
				<ellipse transform="matrix(0.8441 -0.5362 0.5362 0.8441 -56.6865 123.2476)" class="st1" cx="183.59" cy="159.1" rx="11.27" ry="11.27"/>
			
				<ellipse transform="matrix(0.8441 -0.5362 0.5362 0.8441 -40.2294 135.2018)" class="st1" cx="212.38" cy="136.78" rx="11.55" ry="11.55"/>
			
				<ellipse transform="matrix(0.8441 -0.5362 0.5362 0.8441 -25.2457 149.095)" class="st1" cx="243.76" cy="117.96" rx="11.83" ry="11.83"/>
			
				<ellipse transform="matrix(0.8441 -0.5362 0.5362 0.8441 -11.9395 164.8171)" class="st1" cx="277.45" cy="102.94" rx="12.11" ry="12.11"/>
			
				<ellipse transform="matrix(0.8441 -0.5362 0.5362 0.8441 -0.5152 182.2586)" class="st1" cx="313.16" cy="92.02" rx="12.39" ry="12.39"/>
			
				<ellipse transform="matrix(0.8441 -0.5362 0.5362 0.8441 8.823 201.3096)" class="st1" cx="350.59" cy="85.48" rx="12.67" ry="12.67"/>
			
				<ellipse transform="matrix(0.8441 -0.5362 0.5362 0.8441 15.8668 221.8468)" class="st1" cx="389.42" cy="83.64" rx="12.95" ry="12.95"/>
			
				<ellipse transform="matrix(0.8441 -0.5362 0.5362 0.8441 20.2564 242.9523)" class="st1" cx="427.91" cy="86.64" rx="13.23" ry="13.23"/>
			
				<ellipse transform="matrix(0.8441 -0.5362 0.5362 0.8441 21.9388 263.991)" class="st1" cx="464.93" cy="94.27" rx="13.5" ry="13.5"/>
			
				<ellipse transform="matrix(0.8441 -0.5362 0.5362 0.8441 21.0244 284.7571)" class="st1" cx="500.18" cy="106.22" rx="13.78" ry="13.78"/>
			
				<ellipse transform="matrix(0.8441 -0.5362 0.5362 0.8441 17.6238 305.0448)" class="st1" cx="533.37" cy="122.22" rx="14.06" ry="14.06"/>
			
				<ellipse transform="matrix(0.8441 -0.5362 0.5362 0.8441 11.8475 324.6483)" class="st1" cx="564.19" cy="141.95" rx="14.34" ry="14.34"/>
			
				<ellipse transform="matrix(0.8441 -0.5362 0.5362 0.8441 3.806 343.362)" class="st1" cx="592.35" cy="165.14" rx="14.62" ry="14.62"/>
			
				<ellipse transform="matrix(0.8441 -0.5362 0.5362 0.8441 -6.3902 360.9802)" class="st1" cx="617.55" cy="191.48" rx="14.9" ry="14.9"/>
		</g>
		<g>
			
				<ellipse transform="matrix(0.8441 -0.5362 0.5362 0.8441 -220.1901 395.8434)" class="st1" cx="570.6" cy="576.56" rx="3.54" ry="3.54"/>
			
				<ellipse transform="matrix(0.8441 -0.5362 0.5362 0.8441 -237.3177 386.887)" class="st1" cx="546.64" cy="601.54" rx="3.8" ry="3.8"/>
			
				<ellipse transform="matrix(0.8441 -0.5362 0.5362 0.8441 -253.2806 375.9525)" class="st1" cx="519.85" cy="623.52" rx="4.07" ry="4.07"/>
			
				<ellipse transform="matrix(0.8441 -0.5362 0.5362 0.8441 -267.8835 363.1447)" class="st1" cx="490.53" cy="642.23" rx="4.34" ry="4.34"/>
			
				<ellipse transform="matrix(0.8441 -0.5362 0.5362 0.8441 -280.9315 348.5688)" class="st1" cx="458.94" cy="657.38" rx="4.6" ry="4.6"/>
			
				<ellipse transform="matrix(0.8441 -0.5362 0.5362 0.8441 -292.2289 332.3285)" class="st1" cx="425.36" cy="668.68" rx="4.87" ry="4.87"/>
			
				<ellipse transform="matrix(0.8441 -0.5362 0.5362 0.8441 -301.5813 314.5307)" class="st1" cx="390.08" cy="675.87" rx="5.13" ry="5.13"/>
			
				<ellipse transform="matrix(0.8441 -0.5362 0.5362 0.8441 -308.793 295.2788)" class="st1" cx="353.37" cy="678.64" rx="5.4" ry="5.4"/>
			
				<ellipse transform="matrix(0.8441 -0.5362 0.5362 0.8441 -313.5403 275.2867)" class="st1" cx="316.62" cy="676.81" rx="5.66" ry="5.66"/>
			
				<ellipse transform="matrix(0.8441 -0.5362 0.5362 0.8441 -315.7043 255.3148)" class="st1" cx="281.19" cy="670.55" rx="5.93" ry="5.93"/>
			
				<ellipse transform="matrix(0.8441 -0.5362 0.5362 0.8441 -315.3896 235.5571)" class="st1" cx="247.37" cy="660.13" rx="6.19" ry="6.19"/>
			
				<ellipse transform="matrix(0.8441 -0.5362 0.5362 0.8441 -312.6999 216.2068)" class="st1" cx="215.44" cy="645.83" rx="6.46" ry="6.46"/>
			
				<ellipse transform="matrix(0.8441 -0.5362 0.5362 0.8441 -307.7398 197.4585)" class="st1" cx="185.68" cy="627.92" rx="6.72" ry="6.72"/>
			
				<ellipse transform="matrix(0.8441 -0.5362 0.5362 0.8441 -300.6136 179.5061)" class="st1" cx="158.37" cy="606.69" rx="6.99" ry="6.99"/>
			
				<ellipse transform="matrix(0.8441 -0.5362 0.5362 0.8441 -291.4253 162.5438)" class="st1" cx="133.8" cy="582.41" rx="7.26" ry="7.26"/>
			
				<ellipse transform="matrix(0.8441 -0.5362 0.5362 0.8441 -280.2791 146.7654)" class="st1" cx="112.24" cy="555.35" rx="7.52" ry="7.52"/>
			
				<ellipse transform="matrix(0.8441 -0.5362 0.5362 0.8441 -267.2792 132.3649)" class="st1" cx="93.98" cy="525.8" rx="7.79" ry="7.79"/>
			
				<ellipse transform="matrix(0.8441 -0.5362 0.5362 0.8441 -252.5304 119.5371)" class="st1" cx="79.29" cy="494.02" rx="8.05" ry="8.05"/>
			
				<ellipse transform="matrix(0.8441 -0.5362 0.5362 0.8441 -236.1364 108.4754)" class="st1" cx="68.47" cy="460.3" rx="8.32" ry="8.32"/>
			
				<ellipse transform="matrix(0.8441 -0.5362 0.5362 0.8441 -218.2016 99.374)" class="st1" cx="61.78" cy="424.91" rx="8.58" ry="8.58"/>
			
				<ellipse transform="matrix(0.8441 -0.5362 0.5362 0.8441 -198.8343 92.4283)" class="st1" cx="59.52" cy="388.13" rx="8.85" ry="8.85"/>
			
				<ellipse transform="matrix(0.8441 -0.5362 0.5362 0.8441 -178.8358 87.9731)" class="st1" cx="61.86" cy="351.51" rx="9.11" ry="9.11"/>
			
				<ellipse transform="matrix(0.8441 -0.5362 0.5362 0.8441 -158.8784 86.0894)" class="st1" cx="68.6" cy="316.25" rx="9.38" ry="9.38"/>
			
				<ellipse transform="matrix(0.8441 -0.5362 0.5362 0.8441 -139.1561 86.6731)" class="st1" cx="79.47" cy="282.63" rx="9.64" ry="9.64"/>
			
				<ellipse transform="matrix(0.8441 -0.5362 0.5362 0.8441 -119.8633 89.62)" class="st1" cx="94.18" cy="250.93" rx="9.91" ry="9.91"/>
			
				<ellipse transform="matrix(0.8441 -0.5362 0.5362 0.8441 -101.1937 94.8257)" class="st1" cx="112.47" cy="221.43" rx="10.18" ry="10.18"/>
			
				<ellipse transform="matrix(0.8441 -0.5362 0.5362 0.8441 -83.3416 102.1862)" class="st1" cx="134.05" cy="194.41" rx="10.44" ry="10.44"/>
			
				<ellipse transform="matrix(0.8441 -0.5362 0.5362 0.8441 -66.501 111.5971)" class="st1" cx="158.65" cy="170.15" rx="10.71" ry="10.71"/>
			
				<ellipse transform="matrix(0.8441 -0.5362 0.5362 0.8441 -50.866 122.9543)" class="st1" cx="186" cy="148.95" rx="10.97" ry="10.97"/>
			
				<ellipse transform="matrix(0.8441 -0.5362 0.5362 0.8441 -36.6307 136.1534)" class="st1" cx="215.82" cy="131.07" rx="11.24" ry="11.24"/>
			
				<ellipse transform="matrix(0.8441 -0.5362 0.5362 0.8441 -23.9892 151.0902)" class="st1" cx="247.82" cy="116.8" rx="11.5" ry="11.5"/>
			
				<ellipse transform="matrix(0.8441 -0.5362 0.5362 0.8441 -13.1355 167.6605)" class="st1" cx="281.74" cy="106.42" rx="11.77" ry="11.77"/>
			
				<ellipse transform="matrix(0.8441 -0.5362 0.5362 0.8441 -4.2638 185.7599)" class="st1" cx="317.3" cy="100.21" rx="12.03" ry="12.03"/>
			
				<ellipse transform="matrix(0.8441 -0.5362 0.5362 0.8441 2.4282 205.2712)" class="st1" cx="354.2" cy="98.46" rx="12.3" ry="12.3"/>
			
				<ellipse transform="matrix(0.8441 -0.5362 0.5362 0.8441 6.5985 225.3225)" class="st1" cx="390.77" cy="101.31" rx="12.56" ry="12.56"/>
			
				<ellipse transform="matrix(0.8441 -0.5362 0.5362 0.8441 8.1968 245.3104)" class="st1" cx="425.94" cy="108.56" rx="12.83" ry="12.83"/>
			
				<ellipse transform="matrix(0.8441 -0.5362 0.5362 0.8441 7.3281 265.0392)" class="st1" cx="459.43" cy="119.92" rx="13.1" ry="13.1"/>
			
				<ellipse transform="matrix(0.8441 -0.5362 0.5362 0.8441 4.0974 284.3135)" class="st1" cx="490.96" cy="135.11" rx="13.36" ry="13.36"/>
			
				<ellipse transform="matrix(0.8441 -0.5362 0.5362 0.8441 -1.3904 302.9378)" class="st1" cx="520.24" cy="153.86" rx="13.63" ry="13.63"/>
			
				<ellipse transform="matrix(0.8441 -0.5362 0.5362 0.8441 -9.0302 320.7166)" class="st1" cx="546.99" cy="175.89" rx="13.89" ry="13.89"/>
			
				<ellipse transform="matrix(0.8441 -0.5362 0.5362 0.8441 -18.717 337.4549)" class="st1" cx="570.93" cy="200.91" rx="14.16" ry="14.16"/>
		</g>
		<g>
			
				<ellipse transform="matrix(0.8441 -0.5362 0.5362 0.8441 -221.9242 369.2481)" class="st1" cx="524" cy="566.25" rx="3.35" ry="3.35"/>
			
				<ellipse transform="matrix(0.8441 -0.5362 0.5362 0.8441 -238.1512 360.7627)" class="st1" cx="501.3" cy="589.91" rx="3.6" ry="3.6"/>
			
				<ellipse transform="matrix(0.8441 -0.5362 0.5362 0.8441 -253.2748 350.4029)" class="st1" cx="475.92" cy="610.74" rx="3.86" ry="3.86"/>
			
				<ellipse transform="matrix(0.8441 -0.5362 0.5362 0.8441 -267.1101 338.2689)" class="st1" cx="448.13" cy="628.46" rx="4.11" ry="4.11"/>
			
				<ellipse transform="matrix(0.8441 -0.5362 0.5362 0.8441 -279.4719 324.4589)" class="st1" cx="418.21" cy="642.81" rx="4.36" ry="4.36"/>
			
				<ellipse transform="matrix(0.8441 -0.5362 0.5362 0.8441 -290.1752 309.0725)" class="st1" cx="386.4" cy="653.53" rx="4.61" ry="4.61"/>
			
				<ellipse transform="matrix(0.8441 -0.5362 0.5362 0.8441 -299.036 292.2105)" class="st1" cx="352.97" cy="660.33" rx="4.86" ry="4.86"/>
			
				<ellipse transform="matrix(0.8441 -0.5362 0.5362 0.8441 -305.8686 273.9709)" class="st1" cx="318.19" cy="662.96" rx="5.11" ry="5.11"/>
			
				<ellipse transform="matrix(0.8441 -0.5362 0.5362 0.8441 -310.3663 255.0299)" class="st1" cx="283.37" cy="661.22" rx="5.37" ry="5.37"/>
			
				<ellipse transform="matrix(0.8441 -0.5362 0.5362 0.8441 -312.4164 236.1081)" class="st1" cx="249.81" cy="655.29" rx="5.62" ry="5.62"/>
			
				<ellipse transform="matrix(0.8441 -0.5362 0.5362 0.8441 -312.1184 217.3893)" class="st1" cx="217.77" cy="645.42" rx="5.87" ry="5.87"/>
			
				<ellipse transform="matrix(0.8441 -0.5362 0.5362 0.8441 -309.5701 199.0563)" class="st1" cx="187.51" cy="631.87" rx="6.12" ry="6.12"/>
			
				<ellipse transform="matrix(0.8441 -0.5362 0.5362 0.8441 -304.8709 181.2939)" class="st1" cx="159.32" cy="614.91" rx="6.37" ry="6.37"/>
			
				<ellipse transform="matrix(0.8441 -0.5362 0.5362 0.8441 -298.1191 164.2852)" class="st1" cx="133.45" cy="594.79" rx="6.62" ry="6.62"/>
			
				<ellipse transform="matrix(0.8441 -0.5362 0.5362 0.8441 -289.414 148.2147)" class="st1" cx="110.16" cy="571.79" rx="6.87" ry="6.87"/>
			
				<ellipse transform="matrix(0.8441 -0.5362 0.5362 0.8441 -278.8538 133.2658)" class="st1" cx="89.74" cy="546.15" rx="7.13" ry="7.13"/>
			
				<ellipse transform="matrix(0.8441 -0.5362 0.5362 0.8441 -266.5376 119.6227)" class="st1" cx="72.44" cy="518.15" rx="7.38" ry="7.38"/>
			
				<ellipse transform="matrix(0.8441 -0.5362 0.5362 0.8441 -252.5642 107.4692)" class="st1" cx="58.52" cy="488.05" rx="7.63" ry="7.63"/>
			
				<ellipse transform="matrix(0.8441 -0.5362 0.5362 0.8441 -237.032 96.989)" class="st1" cx="48.27" cy="456.1" rx="7.88" ry="7.88"/>
			
				<ellipse transform="matrix(0.8441 -0.5362 0.5362 0.8441 -220.0402 88.3663)" class="st1" cx="41.94" cy="422.57" rx="8.13" ry="8.13"/>
			
				<ellipse transform="matrix(0.8441 -0.5362 0.5362 0.8441 -201.6911 81.7857)" class="st1" cx="39.79" cy="387.72" rx="8.38" ry="8.38"/>
			
				<ellipse transform="matrix(0.8441 -0.5362 0.5362 0.8441 -182.7441 77.5647)" class="st1" cx="42.01" cy="353.03" rx="8.63" ry="8.63"/>
			
				<ellipse transform="matrix(0.8441 -0.5362 0.5362 0.8441 -163.836 75.7801)" class="st1" cx="48.39" cy="319.62" rx="8.89" ry="8.89"/>
			
				<ellipse transform="matrix(0.8441 -0.5362 0.5362 0.8441 -145.1507 76.333)" class="st1" cx="58.69" cy="287.77" rx="9.14" ry="9.14"/>
			
				<ellipse transform="matrix(0.8441 -0.5362 0.5362 0.8441 -126.8722 79.1251)" class="st1" cx="72.63" cy="257.73" rx="9.39" ry="9.39"/>
			
				<ellipse transform="matrix(0.8441 -0.5362 0.5362 0.8441 -109.1841 84.0571)" class="st1" cx="89.95" cy="229.78" rx="9.64" ry="9.64"/>
			
				<ellipse transform="matrix(0.8441 -0.5362 0.5362 0.8441 -92.2707 91.0306)" class="st1" cx="110.4" cy="204.18" rx="9.89" ry="9.89"/>
			
				<ellipse transform="matrix(0.8441 -0.5362 0.5362 0.8441 -76.3155 99.9467)" class="st1" cx="133.71" cy="181.21" rx="10.14" ry="10.14"/>
			
				<ellipse transform="matrix(0.8441 -0.5362 0.5362 0.8441 -61.5026 110.7067)" class="st1" cx="159.62" cy="161.11" rx="10.4" ry="10.4"/>
			
				<ellipse transform="matrix(0.8441 -0.5362 0.5362 0.8441 -48.0158 123.2119)" class="st1" cx="187.87" cy="144.17" rx="10.65" ry="10.65"/>
			
				<ellipse transform="matrix(0.8441 -0.5362 0.5362 0.8441 -36.0389 137.3633)" class="st1" cx="218.19" cy="130.65" rx="10.9" ry="10.9"/>
			
				<ellipse transform="matrix(0.8441 -0.5362 0.5362 0.8441 -25.7559 153.0624)" class="st1" cx="250.33" cy="120.82" rx="11.15" ry="11.15"/>
			
				<ellipse transform="matrix(0.8441 -0.5362 0.5362 0.8441 -17.3505 170.2103)" class="st1" cx="284.02" cy="114.94" rx="11.4" ry="11.4"/>
			
				<ellipse transform="matrix(0.8441 -0.5362 0.5362 0.8441 -11.0104 188.6957)" class="st1" cx="318.98" cy="113.28" rx="11.65" ry="11.65"/>
			
				<ellipse transform="matrix(0.8441 -0.5362 0.5362 0.8441 -7.0594 207.6927)" class="st1" cx="353.62" cy="115.99" rx="11.9" ry="11.9"/>
			
				<ellipse transform="matrix(0.8441 -0.5362 0.5362 0.8441 -5.5451 226.6297)" class="st1" cx="386.94" cy="122.85" rx="12.16" ry="12.16"/>
			
				<ellipse transform="matrix(0.8441 -0.5362 0.5362 0.8441 -6.3681 245.3212)" class="st1" cx="418.67" cy="133.61" rx="12.41" ry="12.41"/>
			
				<ellipse transform="matrix(0.8441 -0.5362 0.5362 0.8441 -9.429 263.5821)" class="st1" cx="448.54" cy="148.01" rx="12.66" ry="12.66"/>
			
				<ellipse transform="matrix(0.8441 -0.5362 0.5362 0.8441 -14.6282 281.2272)" class="st1" cx="476.29" cy="165.77" rx="12.91" ry="12.91"/>
			
				<ellipse transform="matrix(0.8441 -0.5362 0.5362 0.8441 -21.8664 298.0714)" class="st1" cx="501.63" cy="186.64" rx="13.16" ry="13.16"/>
			
				<ellipse transform="matrix(0.8441 -0.5362 0.5362 0.8441 -31.0439 313.9296)" class="st1" cx="524.31" cy="210.35" rx="13.41" ry="13.41"/>
		</g>
		<g>
			
				<ellipse transform="matrix(0.8441 -0.5362 0.5362 0.8441 -223.6582 342.6527)" class="st1" cx="477.4" cy="555.93" rx="3.17" ry="3.17"/>
			
				<ellipse transform="matrix(0.8441 -0.5362 0.5362 0.8441 -238.9846 334.6379)" class="st1" cx="455.95" cy="578.28" rx="3.4" ry="3.4"/>
			
				<ellipse transform="matrix(0.8441 -0.5362 0.5362 0.8441 -253.269 324.8535)" class="st1" cx="431.99" cy="597.95" rx="3.64" ry="3.64"/>
			
				<ellipse transform="matrix(0.8441 -0.5362 0.5362 0.8441 -266.3365 313.3928)" class="st1" cx="405.74" cy="614.69" rx="3.88" ry="3.88"/>
			
				<ellipse transform="matrix(0.8441 -0.5362 0.5362 0.8441 -278.0123 300.3492)" class="st1" cx="377.48" cy="628.25" rx="4.12" ry="4.12"/>
			
				<ellipse transform="matrix(0.8441 -0.5362 0.5362 0.8441 -288.1217 285.8168)" class="st1" cx="347.43" cy="638.37" rx="4.35" ry="4.35"/>
			
				<ellipse transform="matrix(0.8441 -0.5362 0.5362 0.8441 -296.4907 269.8904)" class="st1" cx="315.86" cy="644.79" rx="4.59" ry="4.59"/>
			
				<ellipse transform="matrix(0.8441 -0.5362 0.5362 0.8441 -302.9441 252.6629)" class="st1" cx="283.01" cy="647.28" rx="4.83" ry="4.83"/>
			
				<ellipse transform="matrix(0.8441 -0.5362 0.5362 0.8441 -307.1924 234.7733)" class="st1" cx="250.12" cy="645.64" rx="5.07" ry="5.07"/>
			
				<ellipse transform="matrix(0.8441 -0.5362 0.5362 0.8441 -309.1285 216.9012)" class="st1" cx="218.42" cy="640.03" rx="5.31" ry="5.31"/>
			
				<ellipse transform="matrix(0.8441 -0.5362 0.5362 0.8441 -308.8471 199.2214)" class="st1" cx="188.16" cy="630.71" rx="5.54" ry="5.54"/>
			
				<ellipse transform="matrix(0.8441 -0.5362 0.5362 0.8441 -306.4401 181.9056)" class="st1" cx="159.59" cy="617.91" rx="5.78" ry="5.78"/>
			
				<ellipse transform="matrix(0.8441 -0.5362 0.5362 0.8441 -302.0019 165.1291)" class="st1" cx="132.96" cy="601.89" rx="6.02" ry="6.02"/>
			
				<ellipse transform="matrix(0.8441 -0.5362 0.5362 0.8441 -295.6249 149.0644)" class="st1" cx="108.52" cy="582.89" rx="6.26" ry="6.26"/>
			
				<ellipse transform="matrix(0.8441 -0.5362 0.5362 0.8441 -287.4028 133.8857)" class="st1" cx="86.53" cy="561.16" rx="6.49" ry="6.49"/>
			
				<ellipse transform="matrix(0.8441 -0.5362 0.5362 0.8441 -277.4286 119.7664)" class="st1" cx="67.24" cy="536.95" rx="6.73" ry="6.73"/>
			
				<ellipse transform="matrix(0.8441 -0.5362 0.5362 0.8441 -265.7957 106.8802)" class="st1" cx="50.89" cy="510.51" rx="6.97" ry="6.97"/>
			
				<ellipse transform="matrix(0.8441 -0.5362 0.5362 0.8441 -252.5978 95.4013)" class="st1" cx="37.75" cy="482.07" rx="7.21" ry="7.21"/>
			
				<ellipse transform="matrix(0.8441 -0.5362 0.5362 0.8441 -237.9276 85.5027)" class="st1" cx="28.07" cy="451.89" rx="7.44" ry="7.44"/>
			
				<ellipse transform="matrix(0.8441 -0.5362 0.5362 0.8441 -221.8788 77.3585)" class="st1" cx="22.09" cy="420.22" rx="7.68" ry="7.68"/>
			
				<ellipse transform="matrix(0.8441 -0.5362 0.5362 0.8441 -204.548 71.1431)" class="st1" cx="20.06" cy="387.31" rx="7.92" ry="7.92"/>
			
				<ellipse transform="matrix(0.8441 -0.5362 0.5362 0.8441 -186.6524 67.1563)" class="st1" cx="22.16" cy="354.55" rx="8.16" ry="8.16"/>
			
				<ellipse transform="matrix(0.8441 -0.5362 0.5362 0.8441 -168.7936 65.4707)" class="st1" cx="28.19" cy="322.99" rx="8.39" ry="8.39"/>
			
				<ellipse transform="matrix(0.8441 -0.5362 0.5362 0.8441 -151.1452 65.993)" class="st1" cx="37.91" cy="292.91" rx="8.63" ry="8.63"/>
			
				<ellipse transform="matrix(0.8441 -0.5362 0.5362 0.8441 -133.8811 68.6301)" class="st1" cx="51.08" cy="264.54" rx="8.87" ry="8.87"/>
			
				<ellipse transform="matrix(0.8441 -0.5362 0.5362 0.8441 -117.1747 73.2884)" class="st1" cx="67.44" cy="238.14" rx="9.11" ry="9.11"/>
			
				<ellipse transform="matrix(0.8441 -0.5362 0.5362 0.8441 -101.1998 79.8749)" class="st1" cx="86.75" cy="213.96" rx="9.34" ry="9.34"/>
			
				<ellipse transform="matrix(0.8441 -0.5362 0.5362 0.8441 -86.1301 88.2963)" class="st1" cx="108.77" cy="192.26" rx="9.58" ry="9.58"/>
			
				<ellipse transform="matrix(0.8441 -0.5362 0.5362 0.8441 -72.1392 98.4591)" class="st1" cx="133.24" cy="173.28" rx="9.82" ry="9.82"/>
			
				<ellipse transform="matrix(0.8441 -0.5362 0.5362 0.8441 -59.4008 110.2704)" class="st1" cx="159.92" cy="157.28" rx="10.06" ry="10.06"/>
			
				<ellipse transform="matrix(0.8441 -0.5362 0.5362 0.8441 -48.0886 123.6364)" class="st1" cx="188.56" cy="144.51" rx="10.29" ry="10.29"/>
			
				<ellipse transform="matrix(0.8441 -0.5362 0.5362 0.8441 -38.3762 138.4643)" class="st1" cx="218.92" cy="135.22" rx="10.53" ry="10.53"/>
			
				<ellipse transform="matrix(0.8441 -0.5362 0.5362 0.8441 -30.4373 154.6606)" class="st1" cx="250.74" cy="129.67" rx="10.77" ry="10.77"/>
			
				<ellipse transform="matrix(0.8441 -0.5362 0.5362 0.8441 -24.4491 172.1201)" class="st1" cx="283.75" cy="128.1" rx="11.01" ry="11.01"/>
			
				<ellipse transform="matrix(0.8441 -0.5362 0.5362 0.8441 -20.7173 190.0629)" class="st1" cx="316.48" cy="130.66" rx="11.24" ry="11.24"/>
			
				<ellipse transform="matrix(0.8441 -0.5362 0.5362 0.8441 -19.287 207.949)" class="st1" cx="347.95" cy="137.14" rx="11.48" ry="11.48"/>
			
				<ellipse transform="matrix(0.8441 -0.5362 0.5362 0.8441 -20.0644 225.6032)" class="st1" cx="377.92" cy="147.3" rx="11.72" ry="11.72"/>
			
				<ellipse transform="matrix(0.8441 -0.5362 0.5362 0.8441 -22.9554 242.8508)" class="st1" cx="406.13" cy="160.9" rx="11.96" ry="11.96"/>
			
				<ellipse transform="matrix(0.8441 -0.5362 0.5362 0.8441 -27.8661 259.5167)" class="st1" cx="432.33" cy="177.68" rx="12.19" ry="12.19"/>
			
				<ellipse transform="matrix(0.8441 -0.5362 0.5362 0.8441 -34.7026 275.4261)" class="st1" cx="456.27" cy="197.39" rx="12.43" ry="12.43"/>
			
				<ellipse transform="matrix(0.8441 -0.5362 0.5362 0.8441 -43.3708 290.4042)" class="st1" cx="477.7" cy="219.78" rx="12.67" ry="12.67"/>
		</g>
		<g>
			
				<ellipse transform="matrix(0.8441 -0.5362 0.5362 0.8441 -225.3923 316.0577)" class="st1" cx="430.8" cy="545.62" rx="2.98" ry="2.98"/>
			
				<ellipse transform="matrix(0.8441 -0.5362 0.5362 0.8441 -239.8182 308.5137)" class="st1" cx="410.61" cy="566.65" rx="3.2" ry="3.2"/>
			
				<ellipse transform="matrix(0.8441 -0.5362 0.5362 0.8441 -253.2631 299.3036)" class="st1" cx="388.05" cy="585.17" rx="3.43" ry="3.43"/>
			
				<ellipse transform="matrix(0.8441 -0.5362 0.5362 0.8441 -265.563 288.5168)" class="st1" cx="363.35" cy="600.92" rx="3.65" ry="3.65"/>
			
				<ellipse transform="matrix(0.8441 -0.5362 0.5362 0.8441 -276.5528 276.2397)" class="st1" cx="336.75" cy="613.68" rx="3.88" ry="3.88"/>
			
				<ellipse transform="matrix(0.8441 -0.5362 0.5362 0.8441 -286.0682 262.5611)" class="st1" cx="308.47" cy="623.21" rx="4.1" ry="4.1"/>
			
				<ellipse transform="matrix(0.8441 -0.5362 0.5362 0.8441 -293.9455 247.5705)" class="st1" cx="278.75" cy="629.26" rx="4.32" ry="4.32"/>
			
				<ellipse transform="matrix(0.8441 -0.5362 0.5362 0.8441 -300.0196 231.3549)" class="st1" cx="247.83" cy="631.59" rx="4.55" ry="4.55"/>
			
				<ellipse transform="matrix(0.8441 -0.5362 0.5362 0.8441 -304.0183 214.5165)" class="st1" cx="216.88" cy="630.05" rx="4.77" ry="4.77"/>
			
				<ellipse transform="matrix(0.8441 -0.5362 0.5362 0.8441 -305.8408 197.6947)" class="st1" cx="187.04" cy="624.77" rx="4.99" ry="4.99"/>
			
				<ellipse transform="matrix(0.8441 -0.5362 0.5362 0.8441 -305.576 181.0536)" class="st1" cx="158.55" cy="616" rx="5.22" ry="5.22"/>
			
				<ellipse transform="matrix(0.8441 -0.5362 0.5362 0.8441 -303.3102 164.7551)" class="st1" cx="131.66" cy="603.95" rx="5.44" ry="5.44"/>
			
				<ellipse transform="matrix(0.8441 -0.5362 0.5362 0.8441 -299.1328 148.9643)" class="st1" cx="106.59" cy="588.87" rx="5.66" ry="5.66"/>
			
				<ellipse transform="matrix(0.8441 -0.5362 0.5362 0.8441 -293.1304 133.8434)" class="st1" cx="83.59" cy="570.99" rx="5.89" ry="5.89"/>
			
				<ellipse transform="matrix(0.8441 -0.5362 0.5362 0.8441 -285.3914 119.5566)" class="st1" cx="62.89" cy="550.54" rx="6.11" ry="6.11"/>
			
				<ellipse transform="matrix(0.8441 -0.5362 0.5362 0.8441 -276.0033 106.2668)" class="st1" cx="44.74" cy="527.75" rx="6.33" ry="6.33"/>
			
				<ellipse transform="matrix(0.8441 -0.5362 0.5362 0.8441 -265.054 94.1379)" class="st1" cx="29.35" cy="502.86" rx="6.56" ry="6.56"/>
			
				<ellipse transform="matrix(0.8441 -0.5362 0.5362 0.8441 -252.6316 83.3334)" class="st1" cx="16.99" cy="476.09" rx="6.78" ry="6.78"/>
			
				<ellipse transform="matrix(0.8441 -0.5362 0.5362 0.8441 -238.8233 74.0164)" class="st1" cx="7.87" cy="447.69" rx="7.01" ry="7.01"/>
			
				<ellipse transform="matrix(0.8441 -0.5362 0.5362 0.8441 -223.7174 66.3507)" class="st1" cx="2.24" cy="417.88" rx="7.23" ry="7.23"/>
			
				<ellipse transform="matrix(0.8441 -0.5362 0.5362 0.8441 -207.4049 60.5005)" class="st1" cx="0.33" cy="386.91" rx="7.45" ry="7.45"/>
			
				<ellipse transform="matrix(0.8441 -0.5362 0.5362 0.8441 -190.5608 56.748)" class="st1" cx="2.3" cy="356.06" rx="7.68" ry="7.68"/>
			
				<ellipse transform="matrix(0.8441 -0.5362 0.5362 0.8441 -173.7513 55.1614)" class="st1" cx="7.98" cy="326.36" rx="7.9" ry="7.9"/>
			
				<ellipse transform="matrix(0.8441 -0.5362 0.5362 0.8441 -157.1398 55.653)" class="st1" cx="17.13" cy="298.05" rx="8.12" ry="8.12"/>
			
				<ellipse transform="matrix(0.8441 -0.5362 0.5362 0.8441 -140.89 58.1352)" class="st1" cx="29.52" cy="271.34" rx="8.35" ry="8.35"/>
			
				<ellipse transform="matrix(0.8441 -0.5362 0.5362 0.8441 -125.1651 62.5197)" class="st1" cx="44.93" cy="246.5" rx="8.57" ry="8.57"/>
			
				<ellipse transform="matrix(0.8441 -0.5362 0.5362 0.8441 -110.1289 68.7193)" class="st1" cx="63.11" cy="223.74" rx="8.79" ry="8.79"/>
			
				<ellipse transform="matrix(0.8441 -0.5362 0.5362 0.8441 -95.9446 76.6458)" class="st1" cx="83.83" cy="203.31" rx="9.02" ry="9.02"/>
			
				<ellipse transform="matrix(0.8441 -0.5362 0.5362 0.8441 -82.7758 86.2116)" class="st1" cx="106.86" cy="185.45" rx="9.24" ry="9.24"/>
			
				<ellipse transform="matrix(0.8441 -0.5362 0.5362 0.8441 -70.7859 97.3288)" class="st1" cx="131.97" cy="170.39" rx="9.46" ry="9.46"/>
			
				<ellipse transform="matrix(0.8441 -0.5362 0.5362 0.8441 -60.1383 109.9096)" class="st1" cx="158.93" cy="158.37" rx="9.69" ry="9.69"/>
			
				<ellipse transform="matrix(0.8441 -0.5362 0.5362 0.8441 -50.9965 123.8663)" class="st1" cx="187.5" cy="149.63" rx="9.91" ry="9.91"/>
			
				<ellipse transform="matrix(0.8441 -0.5362 0.5362 0.8441 -43.5241 139.1108)" class="st1" cx="217.45" cy="144.4" rx="10.14" ry="10.14"/>
			
				<ellipse transform="matrix(0.8441 -0.5362 0.5362 0.8441 -37.8877 155.5446)" class="st1" cx="248.53" cy="142.92" rx="10.36" ry="10.36"/>
			
				<ellipse transform="matrix(0.8441 -0.5362 0.5362 0.8441 -34.3752 172.4332)" class="st1" cx="279.33" cy="145.33" rx="10.58" ry="10.58"/>
			
				<ellipse transform="matrix(0.8441 -0.5362 0.5362 0.8441 -33.029 189.2684)" class="st1" cx="308.95" cy="151.43" rx="10.81" ry="10.81"/>
			
				<ellipse transform="matrix(0.8441 -0.5362 0.5362 0.8441 -33.7606 205.8853)" class="st1" cx="337.16" cy="161" rx="11.03" ry="11.03"/>
			
				<ellipse transform="matrix(0.8441 -0.5362 0.5362 0.8441 -36.4818 222.1194)" class="st1" cx="363.72" cy="173.79" rx="11.25" ry="11.25"/>
			
				<ellipse transform="matrix(0.8441 -0.5362 0.5362 0.8441 -41.104 237.8061)" class="st1" cx="388.38" cy="189.59" rx="11.48" ry="11.48"/>
			
				<ellipse transform="matrix(0.8441 -0.5362 0.5362 0.8441 -47.5387 252.7807)" class="st1" cx="410.91" cy="208.14" rx="11.7" ry="11.7"/>
			
				<ellipse transform="matrix(0.8441 -0.5362 0.5362 0.8441 -55.6977 266.8788)" class="st1" cx="431.08" cy="229.22" rx="11.92" ry="11.92"/>
		</g>
		<g>
			<circle class="st1" cx="384.2" cy="535.3" r="2.79"/>
			
				<ellipse transform="matrix(0.8441 -0.5362 0.5362 0.8441 -240.6516 282.3891)" class="st1" cx="365.27" cy="555.02" rx="3" ry="3"/>
			
				<ellipse transform="matrix(0.8441 -0.5362 0.5362 0.8441 -253.2573 273.7542)" class="st1" cx="344.12" cy="572.38" rx="3.21" ry="3.21"/>
			
				<ellipse transform="matrix(0.8441 -0.5362 0.5362 0.8441 -264.7896 263.641)" class="st1" cx="320.96" cy="587.15" rx="3.42" ry="3.42"/>
			
				<ellipse transform="matrix(0.8441 -0.5362 0.5362 0.8441 -275.0933 252.1299)" class="st1" cx="296.02" cy="599.12" rx="3.63" ry="3.63"/>
			
				<ellipse transform="matrix(0.8441 -0.5362 0.5362 0.8441 -284.0147 239.3053)" class="st1" cx="269.5" cy="608.05" rx="3.84" ry="3.84"/>
			
				<ellipse transform="matrix(0.8441 -0.5362 0.5362 0.8441 -291.4003 225.2504)" class="st1" cx="241.64" cy="613.72" rx="4.05" ry="4.05"/>
			
				<ellipse transform="matrix(0.8441 -0.5362 0.5362 0.8441 -297.0953 210.0472)" class="st1" cx="212.65" cy="615.91" rx="4.26" ry="4.26"/>
			
				<ellipse transform="matrix(0.8441 -0.5362 0.5362 0.8441 -300.8444 194.2598)" class="st1" cx="183.63" cy="614.46" rx="4.47" ry="4.47"/>
			
				<ellipse transform="matrix(0.8441 -0.5362 0.5362 0.8441 -302.5528 178.4879)" class="st1" cx="155.65" cy="609.52" rx="4.68" ry="4.68"/>
			
				<ellipse transform="matrix(0.8441 -0.5362 0.5362 0.8441 -302.3047 162.8857)" class="st1" cx="128.95" cy="601.29" rx="4.89" ry="4.89"/>
			
				<ellipse transform="matrix(0.8441 -0.5362 0.5362 0.8441 -300.1805 147.6048)" class="st1" cx="103.73" cy="590" rx="5.1" ry="5.1"/>
			
				<ellipse transform="matrix(0.8441 -0.5362 0.5362 0.8441 -296.2637 132.7995)" class="st1" cx="80.23" cy="575.86" rx="5.31" ry="5.31"/>
			
				<ellipse transform="matrix(0.8441 -0.5362 0.5362 0.8441 -290.6361 118.6226)" class="st1" cx="58.67" cy="559.09" rx="5.52" ry="5.52"/>
			
				<ellipse transform="matrix(0.8441 -0.5362 0.5362 0.8441 -283.3802 105.2275)" class="st1" cx="39.26" cy="539.92" rx="5.73" ry="5.73"/>
			
				<ellipse transform="matrix(0.8441 -0.5362 0.5362 0.8441 -274.5782 92.7674)" class="st1" cx="22.23" cy="518.55" rx="5.94" ry="5.94"/>
			
				<ellipse transform="matrix(0.8441 -0.5362 0.5362 0.8441 -264.3122 81.3956)" class="st1" cx="7.81" cy="495.21" rx="6.15" ry="6.15"/>
			
				<ellipse transform="matrix(0.8441 -0.5362 0.5362 0.8441 -252.6652 71.2654)" class="st1" cx="-3.78" cy="470.12" rx="6.36" ry="6.36"/>
			
				<ellipse transform="matrix(0.8441 -0.5362 0.5362 0.8441 -239.7189 62.5301)" class="st1" cx="-12.33" cy="443.49" rx="6.57" ry="6.57"/>
			
				<ellipse transform="matrix(0.8441 -0.5362 0.5362 0.8441 -225.5559 55.3429)" class="st1" cx="-17.61" cy="415.54" rx="6.78" ry="6.78"/>
			
				<ellipse transform="matrix(0.8441 -0.5362 0.5362 0.8441 -210.2617 49.8579)" class="st1" cx="-19.39" cy="386.5" rx="6.99" ry="6.99"/>
			
				<ellipse transform="matrix(0.8441 -0.5362 0.5362 0.8441 -194.4691 46.3396)" class="st1" cx="-17.55" cy="357.58" rx="7.2" ry="7.2"/>
			
				<ellipse transform="matrix(0.8441 -0.5362 0.5362 0.8441 -178.7089 44.8521)" class="st1" cx="-12.23" cy="329.74" rx="7.41" ry="7.41"/>
			
				<ellipse transform="matrix(0.8441 -0.5362 0.5362 0.8441 -163.1344 45.313)" class="st1" cx="-3.65" cy="303.18" rx="7.62" ry="7.62"/>
			
				<ellipse transform="matrix(0.8441 -0.5362 0.5362 0.8441 -147.899 47.6402)" class="st1" cx="7.97" cy="278.15" rx="7.83" ry="7.83"/>
			
				<ellipse transform="matrix(0.8441 -0.5362 0.5362 0.8441 -133.1557 51.7511)" class="st1" cx="22.41" cy="254.85" rx="8.04" ry="8.04"/>
			
				<ellipse transform="matrix(0.8441 -0.5362 0.5362 0.8441 -119.058 57.5636)" class="st1" cx="39.46" cy="233.52" rx="8.25" ry="8.25"/>
			
				<ellipse transform="matrix(0.8441 -0.5362 0.5362 0.8441 -105.7592 64.9954)" class="st1" cx="58.89" cy="214.36" rx="8.45" ry="8.45"/>
			
				<ellipse transform="matrix(0.8441 -0.5362 0.5362 0.8441 -93.4124 73.964)" class="st1" cx="80.48" cy="197.61" rx="8.66" ry="8.66"/>
			
				<ellipse transform="matrix(0.8441 -0.5362 0.5362 0.8441 -82.1709 84.3873)" class="st1" cx="104.03" cy="183.5" rx="8.87" ry="8.87"/>
			
				<ellipse transform="matrix(0.8441 -0.5362 0.5362 0.8441 -72.188 96.1827)" class="st1" cx="129.3" cy="172.23" rx="9.08" ry="9.08"/>
			
				<ellipse transform="matrix(0.8441 -0.5362 0.5362 0.8441 -63.6169 109.2682)" class="st1" cx="156.09" cy="164.03" rx="9.29" ry="9.29"/>
			
				<ellipse transform="matrix(0.8441 -0.5362 0.5362 0.8441 -56.6109 123.5612)" class="st1" cx="184.17" cy="159.13" rx="9.5" ry="9.5"/>
			
				<ellipse transform="matrix(0.8441 -0.5362 0.5362 0.8441 -51.3264 138.969)" class="st1" cx="213.31" cy="157.75" rx="9.71" ry="9.71"/>
			
				<ellipse transform="matrix(0.8441 -0.5362 0.5362 0.8441 -48.0331 154.8034)" class="st1" cx="242.18" cy="160" rx="9.92" ry="9.92"/>
			
				<ellipse transform="matrix(0.8441 -0.5362 0.5362 0.8441 -46.7709 170.5877)" class="st1" cx="269.96" cy="165.72" rx="10.13" ry="10.13"/>
			
				<ellipse transform="matrix(0.8441 -0.5362 0.5362 0.8441 -47.4569 186.1673)" class="st1" cx="296.41" cy="174.69" rx="10.34" ry="10.34"/>
			
				<ellipse transform="matrix(0.8441 -0.5362 0.5362 0.8441 -50.0082 201.3881)" class="st1" cx="321.3" cy="186.69" rx="10.55" ry="10.55"/>
			
				<ellipse transform="matrix(0.8441 -0.5362 0.5362 0.8441 -54.3418 216.0955)" class="st1" cx="344.43" cy="201.49" rx="10.76" ry="10.76"/>
			
				<ellipse transform="matrix(0.8441 -0.5362 0.5362 0.8441 -60.3749 230.1354)" class="st1" cx="365.56" cy="218.89" rx="10.97" ry="10.97"/>
			
				<ellipse transform="matrix(0.8441 -0.5362 0.5362 0.8441 -68.0246 243.3535)" class="st1" cx="384.46" cy="238.65" rx="11.18" ry="11.18"/>
		</g>
		<g>
			<circle class="st1" cx="337.6" cy="524.98" r="2.61"/>
			<circle class="st1" cx="319.93" cy="543.39" r="2.8"/>
			
				<ellipse transform="matrix(0.8441 -0.5362 0.5362 0.8441 -253.2515 248.2046)" class="st1" cx="300.19" cy="559.6" rx="3" ry="3"/>
			
				<ellipse transform="matrix(0.8441 -0.5362 0.5362 0.8441 -264.016 238.7647)" class="st1" cx="278.57" cy="573.39" rx="3.2" ry="3.2"/>
			
				<ellipse transform="matrix(0.8441 -0.5362 0.5362 0.8441 -273.6335 228.02)" class="st1" cx="255.29" cy="584.55" rx="3.39" ry="3.39"/>
			
				<ellipse transform="matrix(0.8441 -0.5362 0.5362 0.8441 -281.9612 216.0495)" class="st1" cx="230.54" cy="592.89" rx="3.59" ry="3.59"/>
			
				<ellipse transform="matrix(0.8441 -0.5362 0.5362 0.8441 -288.8551 202.9304)" class="st1" cx="204.53" cy="598.18" rx="3.78" ry="3.78"/>
			
				<ellipse transform="matrix(0.8441 -0.5362 0.5362 0.8441 -294.1707 188.7391)" class="st1" cx="177.47" cy="600.23" rx="3.98" ry="3.98"/>
			
				<ellipse transform="matrix(0.8441 -0.5362 0.5362 0.8441 -297.6703 174.0031)" class="st1" cx="150.38" cy="598.88" rx="4.17" ry="4.17"/>
			
				<ellipse transform="matrix(0.8441 -0.5362 0.5362 0.8441 -299.265 159.2812)" class="st1" cx="124.27" cy="594.26" rx="4.37" ry="4.37"/>
			
				<ellipse transform="matrix(0.8441 -0.5362 0.5362 0.8441 -299.0335 144.7179)" class="st1" cx="99.34" cy="586.58" rx="4.57" ry="4.57"/>
			
				<ellipse transform="matrix(0.8441 -0.5362 0.5362 0.8441 -297.0505 130.4541)" class="st1" cx="75.81" cy="576.04" rx="4.76" ry="4.76"/>
			
				<ellipse transform="matrix(0.8441 -0.5362 0.5362 0.8441 -293.3946 116.6347)" class="st1" cx="53.87" cy="562.84" rx="4.96" ry="4.96"/>
			
				<ellipse transform="matrix(0.8441 -0.5362 0.5362 0.8441 -288.1418 103.4017)" class="st1" cx="33.74" cy="547.19" rx="5.15" ry="5.15"/>
			
				<ellipse transform="matrix(0.8441 -0.5362 0.5362 0.8441 -281.3688 90.8984)" class="st1" cx="15.63" cy="529.29" rx="5.35" ry="5.35"/>
			
				<ellipse transform="matrix(0.8441 -0.5362 0.5362 0.8441 -273.1527 79.2678)" class="st1" cx="-0.27" cy="509.35" rx="5.54" ry="5.54"/>
			
				<ellipse transform="matrix(0.8441 -0.5362 0.5362 0.8441 -263.5705 68.6533)" class="st1" cx="-13.73" cy="487.57" rx="5.74" ry="5.74"/>
			
				<ellipse transform="matrix(0.8441 -0.5362 0.5362 0.8441 -252.6989 59.1976)" class="st1" cx="-24.55" cy="464.14" rx="5.94" ry="5.94"/>
			
				<ellipse transform="matrix(0.8441 -0.5362 0.5362 0.8441 -240.6144 51.0437)" class="st1" cx="-32.53" cy="439.28" rx="6.13" ry="6.13"/>
			
				<ellipse transform="matrix(0.8441 -0.5362 0.5362 0.8441 -227.3946 44.3351)" class="st1" cx="-37.46" cy="413.2" rx="6.33" ry="6.33"/>
			
				<ellipse transform="matrix(0.8441 -0.5362 0.5362 0.8441 -213.1185 39.2153)" class="st1" cx="-39.12" cy="386.09" rx="6.52" ry="6.52"/>
			
				<ellipse transform="matrix(0.8441 -0.5362 0.5362 0.8441 -198.3774 35.9312)" class="st1" cx="-37.4" cy="359.1" rx="6.72" ry="6.72"/>
			
				<ellipse transform="matrix(0.8441 -0.5362 0.5362 0.8441 -183.6666 34.5428)" class="st1" cx="-32.43" cy="333.11" rx="6.91" ry="6.91"/>
			
				<ellipse transform="matrix(0.8441 -0.5362 0.5362 0.8441 -169.1288 34.973)" class="st1" cx="-24.42" cy="308.32" rx="7.11" ry="7.11"/>
			
				<ellipse transform="matrix(0.8441 -0.5362 0.5362 0.8441 -154.9079 37.1452)" class="st1" cx="-13.58" cy="284.95" rx="7.3" ry="7.3"/>
			
				<ellipse transform="matrix(0.8441 -0.5362 0.5362 0.8441 -141.1461 40.9824)" class="st1" cx="-0.1" cy="263.21" rx="7.5" ry="7.5"/>
			
				<ellipse transform="matrix(0.8441 -0.5362 0.5362 0.8441 -127.9872 46.408)" class="st1" cx="15.81" cy="243.29" rx="7.7" ry="7.7"/>
			
				<ellipse transform="matrix(0.8441 -0.5362 0.5362 0.8441 -115.5737 53.3449)" class="st1" cx="33.95" cy="225.41" rx="7.89" ry="7.89"/>
			
				<ellipse transform="matrix(0.8441 -0.5362 0.5362 0.8441 -104.049 61.7164)" class="st1" cx="54.1" cy="209.78" rx="8.09" ry="8.09"/>
			
				<ellipse transform="matrix(0.8441 -0.5362 0.5362 0.8441 -93.556 71.4458)" class="st1" cx="76.08" cy="196.6" rx="8.28" ry="8.28"/>
			
				<ellipse transform="matrix(0.8441 -0.5362 0.5362 0.8441 -84.2376 82.4558)" class="st1" cx="99.67" cy="186.08" rx="8.48" ry="8.48"/>
			
				<ellipse transform="matrix(0.8441 -0.5362 0.5362 0.8441 -76.2372 94.6701)" class="st1" cx="124.68" cy="178.43" rx="8.67" ry="8.67"/>
			
				<ellipse transform="matrix(0.8441 -0.5362 0.5362 0.8441 -69.6977 108.0115)" class="st1" cx="150.89" cy="173.86" rx="8.87" ry="8.87"/>
			
				<ellipse transform="matrix(0.8441 -0.5362 0.5362 0.8441 -64.765 122.3935)" class="st1" cx="178.09" cy="172.57" rx="9.07" ry="9.07"/>
			
				<ellipse transform="matrix(0.8441 -0.5362 0.5362 0.8441 -61.691 137.1736)" class="st1" cx="205.04" cy="174.67" rx="9.26" ry="9.26"/>
			
				<ellipse transform="matrix(0.8441 -0.5362 0.5362 0.8441 -60.5128 151.907)" class="st1" cx="230.96" cy="180.01" rx="9.46" ry="9.46"/>
			
				<ellipse transform="matrix(0.8441 -0.5362 0.5362 0.8441 -61.1531 166.4494)" class="st1" cx="255.65" cy="188.38" rx="9.65" ry="9.65"/>
			
				<ellipse transform="matrix(0.8441 -0.5362 0.5362 0.8441 -63.5346 180.6567)" class="st1" cx="278.89" cy="199.58" rx="9.85" ry="9.85"/>
			
				<ellipse transform="matrix(0.8441 -0.5362 0.5362 0.8441 -67.5797 194.385)" class="st1" cx="300.48" cy="213.4" rx="10.04" ry="10.04"/>
			
				<ellipse transform="matrix(0.8441 -0.5362 0.5362 0.8441 -73.2111 207.4901)" class="st1" cx="320.2" cy="229.64" rx="10.24" ry="10.24"/>
			
				<ellipse transform="matrix(0.8441 -0.5362 0.5362 0.8441 -80.3515 219.8282)" class="st1" cx="337.84" cy="248.09" rx="10.44" ry="10.44"/>
		</g>
		<g>
			<circle class="st1" cx="291" cy="514.67" r="2.42"/>
			<circle class="st1" cx="274.59" cy="531.76" r="2.6"/>
			<circle class="st1" cx="256.26" cy="546.81" r="2.79"/>
			
				<ellipse transform="matrix(0.8441 -0.5362 0.5362 0.8441 -263.2424 213.8885)" class="st1" cx="236.18" cy="559.62" rx="2.97" ry="2.97"/>
			
				<ellipse transform="matrix(0.8441 -0.5362 0.5362 0.8441 -272.174 203.9104)" class="st1" cx="214.56" cy="569.99" rx="3.15" ry="3.15"/>
			
				<ellipse transform="matrix(0.8441 -0.5362 0.5362 0.8441 -279.9077 192.7937)" class="st1" cx="191.58" cy="577.73" rx="3.33" ry="3.33"/>
			
				<ellipse transform="matrix(0.8441 -0.5362 0.5362 0.8441 -286.3099 180.6104)" class="st1" cx="167.42" cy="582.65" rx="3.51" ry="3.51"/>
			
				<ellipse transform="matrix(0.8441 -0.5362 0.5362 0.8441 -291.2462 167.4313)" class="st1" cx="142.29" cy="584.55" rx="3.69" ry="3.69"/>
			
				<ellipse transform="matrix(0.8441 -0.5362 0.5362 0.8441 -294.4962 153.7463)" class="st1" cx="117.14" cy="583.29" rx="3.88" ry="3.88"/>
			
				<ellipse transform="matrix(0.8441 -0.5362 0.5362 0.8441 -295.9773 140.0746)" class="st1" cx="92.89" cy="579" rx="4.06" ry="4.06"/>
			
				<ellipse transform="matrix(0.8441 -0.5362 0.5362 0.8441 -295.7624 126.5501)" class="st1" cx="69.74" cy="571.87" rx="4.24" ry="4.24"/>
			
				<ellipse transform="matrix(0.8441 -0.5362 0.5362 0.8441 -293.9205 113.3035)" class="st1" cx="47.88" cy="562.08" rx="4.42" ry="4.42"/>
			
				<ellipse transform="matrix(0.8441 -0.5362 0.5362 0.8441 -290.5257 100.47)" class="st1" cx="27.51" cy="549.83" rx="4.6" ry="4.6"/>
			
				<ellipse transform="matrix(0.8441 -0.5362 0.5362 0.8441 -285.6473 88.1808)" class="st1" cx="8.81" cy="535.29" rx="4.79" ry="4.79"/>
			
				<ellipse transform="matrix(0.8441 -0.5362 0.5362 0.8441 -279.3576 76.5694)" class="st1" cx="-8.01" cy="518.67" rx="4.97" ry="4.97"/>
			
				<ellipse transform="matrix(0.8441 -0.5362 0.5362 0.8441 -271.7275 65.7684)" class="st1" cx="-22.77" cy="500.15" rx="5.15" ry="5.15"/>
			
				<ellipse transform="matrix(0.8441 -0.5362 0.5362 0.8441 -262.8286 55.9108)" class="st1" cx="-35.27" cy="479.92" rx="5.33" ry="5.33"/>
			
				<ellipse transform="matrix(0.8441 -0.5362 0.5362 0.8441 -252.7325 47.1296)" class="st1" cx="-45.32" cy="458.17" rx="5.51" ry="5.51"/>
			
				<ellipse transform="matrix(0.8441 -0.5362 0.5362 0.8441 -241.5102 39.5575)" class="st1" cx="-52.73" cy="435.08" rx="5.69" ry="5.69"/>
			
				<ellipse transform="matrix(0.8441 -0.5362 0.5362 0.8441 -229.2332 33.3273)" class="st1" cx="-57.31" cy="410.85" rx="5.88" ry="5.88"/>
			
				<ellipse transform="matrix(0.8441 -0.5362 0.5362 0.8441 -215.9754 28.5726)" class="st1" cx="-58.85" cy="385.68" rx="6.06" ry="6.06"/>
			
				<ellipse transform="matrix(0.8441 -0.5362 0.5362 0.8441 -202.2857 25.5228)" class="st1" cx="-57.25" cy="360.61" rx="6.24" ry="6.24"/>
			
				<ellipse transform="matrix(0.8441 -0.5362 0.5362 0.8441 -188.6241 24.2334)" class="st1" cx="-52.64" cy="336.48" rx="6.42" ry="6.42"/>
			
				<ellipse transform="matrix(0.8441 -0.5362 0.5362 0.8441 -175.1233 24.6329)" class="st1" cx="-45.2" cy="313.46" rx="6.6" ry="6.6"/>
			
				<ellipse transform="matrix(0.8441 -0.5362 0.5362 0.8441 -161.9168 26.6503)" class="st1" cx="-35.13" cy="291.76" rx="6.78" ry="6.78"/>
			
				<ellipse transform="matrix(0.8441 -0.5362 0.5362 0.8441 -149.1367 30.2138)" class="st1" cx="-22.61" cy="271.56" rx="6.97" ry="6.97"/>
			
				<ellipse transform="matrix(0.8441 -0.5362 0.5362 0.8441 -136.9163 35.2524)" class="st1" cx="-7.84" cy="253.07" rx="7.15" ry="7.15"/>
			
				<ellipse transform="matrix(0.8441 -0.5362 0.5362 0.8441 -125.3883 41.6945)" class="st1" cx="9" cy="236.47" rx="7.33" ry="7.33"/>
			
				<ellipse transform="matrix(0.8441 -0.5362 0.5362 0.8441 -114.6856 49.4689)" class="st1" cx="27.72" cy="221.95" rx="7.51" ry="7.51"/>
			
				<ellipse transform="matrix(0.8441 -0.5362 0.5362 0.8441 -104.941 58.5042)" class="st1" cx="48.13" cy="209.71" rx="7.69" ry="7.69"/>
			
				<ellipse transform="matrix(0.8441 -0.5362 0.5362 0.8441 -96.2873 68.729)" class="st1" cx="70.04" cy="199.94" rx="7.87" ry="7.87"/>
			
				<ellipse transform="matrix(0.8441 -0.5362 0.5362 0.8441 -88.8576 80.072)" class="st1" cx="93.26" cy="192.84" rx="8.06" ry="8.06"/>
			
				<ellipse transform="matrix(0.8441 -0.5362 0.5362 0.8441 -82.7845 92.4618)" class="st1" cx="117.61" cy="188.59" rx="8.24" ry="8.24"/>
			
				<ellipse transform="matrix(0.8441 -0.5362 0.5362 0.8441 -78.2036 105.8179)" class="st1" cx="142.86" cy="187.39" rx="8.42" ry="8.42"/>
			
				<ellipse transform="matrix(0.8441 -0.5362 0.5362 0.8441 -75.3488 119.5437)" class="st1" cx="167.89" cy="189.34" rx="8.6" ry="8.6"/>
			
				<ellipse transform="matrix(0.8441 -0.5362 0.5362 0.8441 -74.2548 133.2263)" class="st1" cx="191.97" cy="194.3" rx="8.78" ry="8.78"/>
			
				<ellipse transform="matrix(0.8441 -0.5362 0.5362 0.8441 -74.8494 146.7314)" class="st1" cx="214.9" cy="202.08" rx="8.96" ry="8.96"/>
			
				<ellipse transform="matrix(0.8441 -0.5362 0.5362 0.8441 -77.061 159.9254)" class="st1" cx="236.48" cy="212.48" rx="9.15" ry="9.15"/>
			
				<ellipse transform="matrix(0.8441 -0.5362 0.5362 0.8441 -80.8175 172.6745)" class="st1" cx="256.52" cy="225.31" rx="9.33" ry="9.33"/>
			
				<ellipse transform="matrix(0.8441 -0.5362 0.5362 0.8441 -86.0473 184.8448)" class="st1" cx="274.84" cy="240.39" rx="9.51" ry="9.51"/>
			
				<ellipse transform="matrix(0.8441 -0.5362 0.5362 0.8441 -92.6784 196.3028)" class="st1" cx="291.22" cy="257.52" rx="9.69" ry="9.69"/>
		</g>
		<g>
			<circle class="st1" cx="244.4" cy="504.35" r="2.24"/>
			<circle class="st1" cx="229.25" cy="520.14" r="2.4"/>
			<circle class="st1" cx="212.33" cy="534.03" r="2.57"/>
			<circle class="st1" cx="193.79" cy="545.85" r="2.74"/>
			
				<ellipse transform="matrix(0.8441 -0.5362 0.5362 0.8441 -270.7147 179.8009)" class="st1" cx="173.83" cy="555.42" rx="2.91" ry="2.91"/>
			
				<ellipse transform="matrix(0.8441 -0.5362 0.5362 0.8441 -277.8541 169.5378)" class="st1" cx="152.61" cy="562.57" rx="3.08" ry="3.08"/>
			
				<ellipse transform="matrix(0.8441 -0.5362 0.5362 0.8441 -283.7645 158.2902)" class="st1" cx="130.31" cy="567.11" rx="3.24" ry="3.24"/>
			
				<ellipse transform="matrix(0.8441 -0.5362 0.5362 0.8441 -288.3217 146.1233)" class="st1" cx="107.11" cy="568.86" rx="3.41" ry="3.41"/>
			
				<ellipse transform="matrix(0.8441 -0.5362 0.5362 0.8441 -291.3222 133.4895)" class="st1" cx="83.89" cy="567.71" rx="3.58" ry="3.58"/>
			
				<ellipse transform="matrix(0.8441 -0.5362 0.5362 0.8441 -292.6891 120.8677)" class="st1" cx="61.5" cy="563.75" rx="3.75" ry="3.75"/>
			
				<ellipse transform="matrix(0.8441 -0.5362 0.5362 0.8441 -292.4912 108.3823)" class="st1" cx="40.13" cy="557.16" rx="3.91" ry="3.91"/>
			
				<ellipse transform="matrix(0.8441 -0.5362 0.5362 0.8441 -290.7906 96.153)" class="st1" cx="19.95" cy="548.12" rx="4.08" ry="4.08"/>
			
				<ellipse transform="matrix(0.8441 -0.5362 0.5362 0.8441 -287.6567 84.3052)" class="st1" cx="1.14" cy="536.81" rx="4.25" ry="4.25"/>
			
				<ellipse transform="matrix(0.8441 -0.5362 0.5362 0.8441 -283.1531 72.96)" class="st1" cx="-16.11" cy="523.39" rx="4.42" ry="4.42"/>
			
				<ellipse transform="matrix(0.8441 -0.5362 0.5362 0.8441 -277.3463 62.2403)" class="st1" cx="-31.64" cy="508.05" rx="4.59" ry="4.59"/>
			
				<ellipse transform="matrix(0.8441 -0.5362 0.5362 0.8441 -270.3023 52.269)" class="st1" cx="-45.27" cy="490.95" rx="4.75" ry="4.75"/>
			
				<ellipse transform="matrix(0.8441 -0.5362 0.5362 0.8441 -262.0869 43.1685)" class="st1" cx="-56.81" cy="472.27" rx="4.92" ry="4.92"/>
			
				<ellipse transform="matrix(0.8441 -0.5362 0.5362 0.8441 -252.7664 35.0618)" class="st1" cx="-66.09" cy="452.19" rx="5.09" ry="5.09"/>
			
				<ellipse transform="matrix(0.8441 -0.5362 0.5362 0.8441 -242.4056 28.0711)" class="st1" cx="-72.93" cy="430.88" rx="5.26" ry="5.26"/>
			
				<ellipse transform="matrix(0.8441 -0.5362 0.5362 0.8441 -231.0719 22.3195)" class="st1" cx="-77.16" cy="408.51" rx="5.42" ry="5.42"/>
			
				<ellipse transform="matrix(0.8441 -0.5362 0.5362 0.8441 -218.8323 17.9301)" class="st1" cx="-78.58" cy="385.27" rx="5.59" ry="5.59"/>
			
				<ellipse transform="matrix(0.8441 -0.5362 0.5362 0.8441 -206.1939 15.1145)" class="st1" cx="-77.11" cy="362.13" rx="5.76" ry="5.76"/>
			
				<ellipse transform="matrix(0.8441 -0.5362 0.5362 0.8441 -193.5817 13.9241)" class="st1" cx="-72.85" cy="339.85" rx="5.93" ry="5.93"/>
			
				<ellipse transform="matrix(0.8441 -0.5362 0.5362 0.8441 -181.1179 14.2929)" class="st1" cx="-65.98" cy="318.6" rx="6.1" ry="6.1"/>
			
				<ellipse transform="matrix(0.8441 -0.5362 0.5362 0.8441 -168.9257 16.1553)" class="st1" cx="-56.68" cy="298.56" rx="6.26" ry="6.26"/>
			
				<ellipse transform="matrix(0.8441 -0.5362 0.5362 0.8441 -157.1272 19.4451)" class="st1" cx="-45.13" cy="279.92" rx="6.43" ry="6.43"/>
			
				<ellipse transform="matrix(0.8441 -0.5362 0.5362 0.8441 -145.8455 24.0967)" class="st1" cx="-31.49" cy="262.85" rx="6.6" ry="6.6"/>
			
				<ellipse transform="matrix(0.8441 -0.5362 0.5362 0.8441 -135.2028 30.044)" class="st1" cx="-15.94" cy="247.52" rx="6.77" ry="6.77"/>
			
				<ellipse transform="matrix(0.8441 -0.5362 0.5362 0.8441 -125.3222 37.2213)" class="st1" cx="1.35" cy="234.12" rx="6.93" ry="6.93"/>
			
				<ellipse transform="matrix(0.8441 -0.5362 0.5362 0.8441 -116.3261 45.5627)" class="st1" cx="20.19" cy="222.82" rx="7.1" ry="7.1"/>
			
				<ellipse transform="matrix(0.8441 -0.5362 0.5362 0.8441 -108.337 55.0021)" class="st1" cx="40.41" cy="213.8" rx="7.27" ry="7.27"/>
			
				<ellipse transform="matrix(0.8441 -0.5362 0.5362 0.8441 -101.4779 65.4739)" class="st1" cx="61.85" cy="207.24" rx="7.44" ry="7.44"/>
			
				<ellipse transform="matrix(0.8441 -0.5362 0.5362 0.8441 -95.8713 76.912)" class="st1" cx="84.32" cy="203.32" rx="7.6" ry="7.6"/>
			
				<ellipse transform="matrix(0.8441 -0.5362 0.5362 0.8441 -91.6423 89.2424)" class="st1" cx="107.64" cy="202.21" rx="7.77" ry="7.77"/>
			
				<ellipse transform="matrix(0.8441 -0.5362 0.5362 0.8441 -89.0067 101.914)" class="st1" cx="130.75" cy="204.01" rx="7.94" ry="7.94"/>
			
				<ellipse transform="matrix(0.8441 -0.5362 0.5362 0.8441 -87.9967 114.5457)" class="st1" cx="152.98" cy="208.59" rx="8.11" ry="8.11"/>
			
				<ellipse transform="matrix(0.8441 -0.5362 0.5362 0.8441 -88.5457 127.0134)" class="st1" cx="174.14" cy="215.77" rx="8.28" ry="8.28"/>
			
				<ellipse transform="matrix(0.8441 -0.5362 0.5362 0.8441 -90.5873 139.194)" class="st1" cx="194.07" cy="225.37" rx="8.44" ry="8.44"/>
			
				<ellipse transform="matrix(0.8441 -0.5362 0.5362 0.8441 -94.0554 150.9639)" class="st1" cx="212.57" cy="237.22" rx="8.61" ry="8.61"/>
			
				<ellipse transform="matrix(0.8441 -0.5362 0.5362 0.8441 -98.8835 162.1995)" class="st1" cx="229.48" cy="251.14" rx="8.78" ry="8.78"/>
			
				<ellipse transform="matrix(0.8441 -0.5362 0.5362 0.8441 -105.0053 172.7775)" class="st1" cx="244.61" cy="266.96" rx="8.95" ry="8.95"/>
		</g>
		<g>
			<circle class="st1" cx="197.8" cy="494.04" r="2.05"/>
			<circle class="st1" cx="183.91" cy="508.51" r="2.2"/>
			<circle class="st1" cx="168.39" cy="521.24" r="2.36"/>
			<circle class="st1" cx="151.4" cy="532.08" r="2.51"/>
			<circle class="st1" cx="133.1" cy="540.86" r="2.67"/>
			<circle class="st1" cx="113.65" cy="547.41" r="2.82"/>
			
				<ellipse transform="matrix(0.8441 -0.5362 0.5362 0.8441 -281.2194 135.9702)" class="st1" cx="93.21" cy="551.57" rx="2.97" ry="2.97"/>
			
				<ellipse transform="matrix(0.8441 -0.5362 0.5362 0.8441 -285.3971 124.8154)" class="st1" cx="71.94" cy="553.18" rx="3.13" ry="3.13"/>
			
				<ellipse transform="matrix(0.8441 -0.5362 0.5362 0.8441 -288.148 113.2327)" class="st1" cx="50.64" cy="552.12" rx="3.28" ry="3.28"/>
			
				<ellipse transform="matrix(0.8441 -0.5362 0.5362 0.8441 -289.4013 101.661)" class="st1" cx="30.12" cy="548.49" rx="3.43" ry="3.43"/>
			
				<ellipse transform="matrix(0.8441 -0.5362 0.5362 0.8441 -289.2202 90.2144)" class="st1" cx="10.52" cy="542.45" rx="3.59" ry="3.59"/>
			
				<ellipse transform="matrix(0.8441 -0.5362 0.5362 0.8441 -287.6607 79.0025)" class="st1" cx="-7.98" cy="534.17" rx="3.74" ry="3.74"/>
			
				<ellipse transform="matrix(0.8441 -0.5362 0.5362 0.8441 -284.7874 68.1403)" class="st1" cx="-25.22" cy="523.79" rx="3.9" ry="3.9"/>
			
				<ellipse transform="matrix(0.8441 -0.5362 0.5362 0.8441 -280.6587 57.7391)" class="st1" cx="-41.04" cy="511.49" rx="4.05" ry="4.05"/>
			
				<ellipse transform="matrix(0.8441 -0.5362 0.5362 0.8441 -275.3351 47.9113)" class="st1" cx="-55.28" cy="497.42" rx="4.2" ry="4.2"/>
			
				<ellipse transform="matrix(0.8441 -0.5362 0.5362 0.8441 -268.877 38.7694)" class="st1" cx="-67.77" cy="481.75" rx="4.36" ry="4.36"/>
			
				<ellipse transform="matrix(0.8441 -0.5362 0.5362 0.8441 -261.3451 30.4261)" class="st1" cx="-78.35" cy="464.62" rx="4.51" ry="4.51"/>
			
				<ellipse transform="matrix(0.8441 -0.5362 0.5362 0.8441 -252.8 22.9939)" class="st1" cx="-86.86" cy="446.21" rx="4.67" ry="4.67"/>
			
				<ellipse transform="matrix(0.8441 -0.5362 0.5362 0.8441 -243.3014 16.5848)" class="st1" cx="-93.13" cy="426.68" rx="4.82" ry="4.82"/>
			
				<ellipse transform="matrix(0.8441 -0.5362 0.5362 0.8441 -232.9104 11.3117)" class="st1" cx="-97" cy="406.17" rx="4.97" ry="4.97"/>
			
				<ellipse transform="matrix(0.8441 -0.5362 0.5362 0.8441 -221.6892 7.2875)" class="st1" cx="-98.31" cy="384.86" rx="5.13" ry="5.13"/>
			
				<ellipse transform="matrix(0.8441 -0.5362 0.5362 0.8441 -210.1023 4.7061)" class="st1" cx="-96.96" cy="363.65" rx="5.28" ry="5.28"/>
			
				<ellipse transform="matrix(0.8441 -0.5362 0.5362 0.8441 -198.5394 3.6148)" class="st1" cx="-93.05" cy="343.22" rx="5.43" ry="5.43"/>
			
				<ellipse transform="matrix(0.8441 -0.5362 0.5362 0.8441 -187.1124 3.9529)" class="st1" cx="-86.76" cy="323.74" rx="5.59" ry="5.59"/>
			
				<ellipse transform="matrix(0.8441 -0.5362 0.5362 0.8441 -175.9346 5.6603)" class="st1" cx="-78.23" cy="305.37" rx="5.74" ry="5.74"/>
			
				<ellipse transform="matrix(0.8441 -0.5362 0.5362 0.8441 -165.1177 8.6765)" class="st1" cx="-67.64" cy="288.28" rx="5.9" ry="5.9"/>
			
				<ellipse transform="matrix(0.8441 -0.5362 0.5362 0.8441 -154.7746 12.9411)" class="st1" cx="-55.13" cy="272.62" rx="6.05" ry="6.05"/>
			
				<ellipse transform="matrix(0.8441 -0.5362 0.5362 0.8441 -145.0173 18.3936)" class="st1" cx="-40.88" cy="258.57" rx="6.2" ry="6.2"/>
			
				<ellipse transform="matrix(0.8441 -0.5362 0.5362 0.8441 -135.9588 24.9738)" class="st1" cx="-25.03" cy="246.28" rx="6.36" ry="6.36"/>
			
				<ellipse transform="matrix(0.8441 -0.5362 0.5362 0.8441 -127.7112 32.6212)" class="st1" cx="-7.76" cy="235.92" rx="6.51" ry="6.51"/>
			
				<ellipse transform="matrix(0.8441 -0.5362 0.5362 0.8441 -120.3866 41.2752)" class="st1" cx="10.78" cy="227.66" rx="6.66" ry="6.66"/>
			
				<ellipse transform="matrix(0.8441 -0.5362 0.5362 0.8441 -114.0982 50.8758)" class="st1" cx="30.44" cy="221.64" rx="6.82" ry="6.82"/>
			
				<ellipse transform="matrix(0.8441 -0.5362 0.5362 0.8441 -108.958 61.3623)" class="st1" cx="51.04" cy="218.05" rx="6.97" ry="6.97"/>
			
				<ellipse transform="matrix(0.8441 -0.5362 0.5362 0.8441 -105.0809 72.6669)" class="st1" cx="72.42" cy="217.03" rx="7.13" ry="7.13"/>
			
				<ellipse transform="matrix(0.8441 -0.5362 0.5362 0.8441 -102.6646 84.2842)" class="st1" cx="93.6" cy="218.69" rx="7.28" ry="7.28"/>
			
				<ellipse transform="matrix(0.8441 -0.5362 0.5362 0.8441 -101.7387 95.865)" class="st1" cx="113.98" cy="222.88" rx="7.43" ry="7.43"/>
			
				<ellipse transform="matrix(0.8441 -0.5362 0.5362 0.8441 -102.2419 107.2955)" class="st1" cx="133.39" cy="229.46" rx="7.59" ry="7.59"/>
			
				<ellipse transform="matrix(0.8441 -0.5362 0.5362 0.8441 -104.1137 118.4627)" class="st1" cx="151.65" cy="238.27" rx="7.74" ry="7.74"/>
			
				<ellipse transform="matrix(0.8441 -0.5362 0.5362 0.8441 -107.2932 129.2533)" class="st1" cx="168.62" cy="249.13" rx="7.89" ry="7.89"/>
			
				<ellipse transform="matrix(0.8441 -0.5362 0.5362 0.8441 -111.7197 139.5542)" class="st1" cx="184.12" cy="261.89" rx="8.05" ry="8.05"/>
			
				<ellipse transform="matrix(0.8441 -0.5362 0.5362 0.8441 -117.3322 149.2521)" class="st1" cx="197.99" cy="276.39" rx="8.2" ry="8.2"/>
		</g>
		<g>
			<circle class="st1" cx="151.2" cy="483.72" r="1.86"/>
			<circle class="st1" cx="138.57" cy="496.88" r="2"/>
			<circle class="st1" cx="124.46" cy="508.46" r="2.14"/>
			<circle class="st1" cx="109.01" cy="518.31" r="2.28"/>
			<circle class="st1" cx="92.37" cy="526.29" r="2.42"/>
			<circle class="st1" cx="74.68" cy="532.25" r="2.56"/>
			<circle class="st1" cx="56.1" cy="536.04" r="2.7"/>
			
				<ellipse transform="matrix(0.8441 -0.5362 0.5362 0.8441 -282.4727 103.5076)" class="st1" cx="36.76" cy="537.5" rx="2.84" ry="2.84"/>
			
				<ellipse transform="matrix(0.8441 -0.5362 0.5362 0.8441 -284.9742 92.976)" class="st1" cx="17.4" cy="536.53" rx="2.98" ry="2.98"/>
			
				<ellipse transform="matrix(0.8441 -0.5362 0.5362 0.8441 -286.1135 82.4544)" class="st1" cx="-1.27" cy="533.23" rx="3.12" ry="3.12"/>
			
				<ellipse transform="matrix(0.8441 -0.5362 0.5362 0.8441 -285.9488 72.0465)" class="st1" cx="-19.08" cy="527.74" rx="3.26" ry="3.26"/>
			
				<ellipse transform="matrix(0.8441 -0.5362 0.5362 0.8441 -284.5307 61.852)" class="st1" cx="-35.9" cy="520.21" rx="3.4" ry="3.4"/>
			
				<ellipse transform="matrix(0.8441 -0.5362 0.5362 0.8441 -281.9184 51.9756)" class="st1" cx="-51.58" cy="510.78" rx="3.54" ry="3.54"/>
			
				<ellipse transform="matrix(0.8441 -0.5362 0.5362 0.8441 -278.1644 42.5182)" class="st1" cx="-65.97" cy="499.59" rx="3.68" ry="3.68"/>
			
				<ellipse transform="matrix(0.8441 -0.5362 0.5362 0.8441 -273.3238 33.5822)" class="st1" cx="-78.91" cy="486.8" rx="3.82" ry="3.82"/>
			
				<ellipse transform="matrix(0.8441 -0.5362 0.5362 0.8441 -267.4518 25.27)" class="st1" cx="-90.27" cy="472.55" rx="3.96" ry="3.96"/>
			
				<ellipse transform="matrix(0.8441 -0.5362 0.5362 0.8441 -260.6034 17.6838)" class="st1" cx="-99.89" cy="456.98" rx="4.1" ry="4.1"/>
			
				<ellipse transform="matrix(0.8441 -0.5362 0.5362 0.8441 -252.8337 10.926)" class="st1" cx="-107.63" cy="440.24" rx="4.24" ry="4.24"/>
			
				<ellipse transform="matrix(0.8441 -0.5362 0.5362 0.8441 -244.1969 5.0985)" class="st1" cx="-113.33" cy="422.47" rx="4.38" ry="4.38"/>
			
				<ellipse transform="matrix(0.8441 -0.5362 0.5362 0.8441 -234.7491 0.3039)" class="st1" cx="-116.85" cy="403.83" rx="4.52" ry="4.52"/>
			
				<ellipse transform="matrix(0.8441 -0.5362 0.5362 0.8441 -224.5461 -3.3551)" class="st1" cx="-118.04" cy="384.45" rx="4.66" ry="4.66"/>
			
				<ellipse transform="matrix(0.8441 -0.5362 0.5362 0.8441 -214.0105 -5.7023)" class="st1" cx="-116.81" cy="365.16" rx="4.8" ry="4.8"/>
			
				<ellipse transform="matrix(0.8441 -0.5362 0.5362 0.8441 -203.497 -6.6946)" class="st1" cx="-113.26" cy="346.59" rx="4.94" ry="4.94"/>
			
				<ellipse transform="matrix(0.8441 -0.5362 0.5362 0.8441 -193.107 -6.3871)" class="st1" cx="-107.54" cy="328.88" rx="5.08" ry="5.08"/>
			
				<ellipse transform="matrix(0.8441 -0.5362 0.5362 0.8441 -182.9436 -4.8346)" class="st1" cx="-99.79" cy="312.17" rx="5.22" ry="5.22"/>
			
				<ellipse transform="matrix(0.8441 -0.5362 0.5362 0.8441 -173.1081 -2.0922)" class="st1" cx="-90.15" cy="296.63" rx="5.36" ry="5.36"/>
			
				<ellipse transform="matrix(0.8441 -0.5362 0.5362 0.8441 -163.7037 1.7854)" class="st1" cx="-78.78" cy="282.4" rx="5.5" ry="5.5"/>
			
				<ellipse transform="matrix(0.8441 -0.5362 0.5362 0.8441 -154.8319 6.7431)" class="st1" cx="-65.82" cy="269.62" rx="5.64" ry="5.64"/>
			
				<ellipse transform="matrix(0.8441 -0.5362 0.5362 0.8441 -146.5954 12.7262)" class="st1" cx="-51.41" cy="258.45" rx="5.78" ry="5.78"/>
			
				<ellipse transform="matrix(0.8441 -0.5362 0.5362 0.8441 -139.0962 19.6796)" class="st1" cx="-35.71" cy="249.03" rx="5.92" ry="5.92"/>
			
				<ellipse transform="matrix(0.8441 -0.5362 0.5362 0.8441 -132.4363 27.5483)" class="st1" cx="-18.85" cy="241.51" rx="6.06" ry="6.06"/>
			
				<ellipse transform="matrix(0.8441 -0.5362 0.5362 0.8441 -126.7186 36.2777)" class="st1" cx="-0.98" cy="236.05" rx="6.2" ry="6.2"/>
			
				<ellipse transform="matrix(0.8441 -0.5362 0.5362 0.8441 -122.0448 45.8126)" class="st1" cx="17.76" cy="232.78" rx="6.34" ry="6.34"/>
			
				<ellipse transform="matrix(0.8441 -0.5362 0.5362 0.8441 -118.5196 56.0913)" class="st1" cx="37.2" cy="231.85" rx="6.48" ry="6.48"/>
			
				<ellipse transform="matrix(0.8441 -0.5362 0.5362 0.8441 -116.3225 66.6544)" class="st1" cx="56.46" cy="233.36" rx="6.62" ry="6.62"/>
			
				<ellipse transform="matrix(0.8441 -0.5362 0.5362 0.8441 -115.4806 77.1844)" class="st1" cx="74.99" cy="237.17" rx="6.76" ry="6.76"/>
			
				<ellipse transform="matrix(0.8441 -0.5362 0.5362 0.8441 -115.9382 87.5775)" class="st1" cx="92.63" cy="243.16" rx="6.9" ry="6.9"/>
			
				<ellipse transform="matrix(0.8441 -0.5362 0.5362 0.8441 -117.6401 97.7313)" class="st1" cx="109.24" cy="251.16" rx="7.04" ry="7.04"/>
			
				<ellipse transform="matrix(0.8441 -0.5362 0.5362 0.8441 -120.5311 107.5428)" class="st1" cx="124.67" cy="261.04" rx="7.18" ry="7.18"/>
			
				<ellipse transform="matrix(0.8441 -0.5362 0.5362 0.8441 -124.5558 116.9089)" class="st1" cx="138.76" cy="272.64" rx="7.32" ry="7.32"/>
			
				<ellipse transform="matrix(0.8441 -0.5362 0.5362 0.8441 -129.6591 125.7267)" class="st1" cx="151.37" cy="285.83" rx="7.46" ry="7.46"/>
		</g>
	</g>
</g>
</svg>
