<?xml version="1.0" encoding="UTF-8"?>
<svg xmlns="http://www.w3.org/2000/svg" xmlns:xlink="http://www.w3.org/1999/xlink" width="2000" height="2000" viewBox="0 0 2000 2000">
<defs>
<clipPath id="clip-0">
<path clip-rule="nonzero" d="M 700 1178 L 1300 1178 L 1300 1188 L 700 1188 Z M 700 1178 "/>
</clipPath>
<clipPath id="clip-1">
<path clip-rule="nonzero" d="M 1299.53125 1183.058594 C 1299.53125 1185.550781 1165.421875 1187.558594 1000 1187.558594 C 834.574219 1187.558594 700.472656 1185.550781 700.472656 1183.058594 C 700.472656 1180.578125 834.574219 1178.558594 1000 1178.558594 C 1165.421875 1178.558594 1299.53125 1180.578125 1299.53125 1183.058594 Z M 1299.53125 1183.058594 "/>
</clipPath>
<clipPath id="clip-2">
<path clip-rule="nonzero" d="M 1299.53125 1183.058594 C 1299.53125 1185.550781 1165.421875 1187.558594 1000 1187.558594 C 834.574219 1187.558594 700.472656 1185.550781 700.472656 1183.058594 C 700.472656 1180.578125 834.574219 1178.558594 1000 1178.558594 C 1165.421875 1178.558594 1299.53125 1180.578125 1299.53125 1183.058594 "/>
</clipPath>
<radialGradient id="radial-pattern-0" gradientUnits="userSpaceOnUse" cx="0" cy="0" fx="0" fy="0" r="211.821" gradientTransform="matrix(1, 0, 0, 1, 1000, 1183.06)">
<stop offset="0" stop-color="rgb(82.884216%, 82.572937%, 82.649231%)" stop-opacity="1"/>
<stop offset="0.015625" stop-color="rgb(83.119202%, 82.8125%, 82.888794%)" stop-opacity="1"/>
<stop offset="0.0273438" stop-color="rgb(83.323669%, 83.02002%, 83.094788%)" stop-opacity="1"/>
<stop offset="0.0390625" stop-color="rgb(83.528137%, 83.227539%, 83.302307%)" stop-opacity="1"/>
<stop offset="0.0507812" stop-color="rgb(83.729553%, 83.433533%, 83.508301%)" stop-opacity="1"/>
<stop offset="0.0625" stop-color="rgb(83.934021%, 83.642578%, 83.714294%)" stop-opacity="1"/>
<stop offset="0.0742188" stop-color="rgb(84.138489%, 83.850098%, 83.921814%)" stop-opacity="1"/>
<stop offset="0.0859375" stop-color="rgb(84.342957%, 84.057617%, 84.127808%)" stop-opacity="1"/>
<stop offset="0.0976562" stop-color="rgb(84.544373%, 84.262085%, 84.332275%)" stop-opacity="1"/>
<stop offset="0.109375" stop-color="rgb(84.74884%, 84.47113%, 84.539795%)" stop-opacity="1"/>
<stop offset="0.121094" stop-color="rgb(84.953308%, 84.67865%, 84.747314%)" stop-opacity="1"/>
<stop offset="0.132812" stop-color="rgb(85.154724%, 84.884644%, 84.951782%)" stop-opacity="1"/>
<stop offset="0.144531" stop-color="rgb(85.359192%, 85.092163%, 85.157776%)" stop-opacity="1"/>
<stop offset="0.15625" stop-color="rgb(85.562134%, 85.299683%, 85.365295%)" stop-opacity="1"/>
<stop offset="0.167969" stop-color="rgb(85.765076%, 85.505676%, 85.571289%)" stop-opacity="1"/>
<stop offset="0.179688" stop-color="rgb(85.969543%, 85.714722%, 85.777283%)" stop-opacity="1"/>
<stop offset="0.191406" stop-color="rgb(86.174011%, 85.922241%, 85.984802%)" stop-opacity="1"/>
<stop offset="0.203125" stop-color="rgb(86.376953%, 86.129761%, 86.190796%)" stop-opacity="1"/>
<stop offset="0.214844" stop-color="rgb(86.578369%, 86.334229%, 86.395264%)" stop-opacity="1"/>
<stop offset="0.226562" stop-color="rgb(86.784363%, 86.543274%, 86.602783%)" stop-opacity="1"/>
<stop offset="0.238281" stop-color="rgb(86.988831%, 86.750793%, 86.810303%)" stop-opacity="1"/>
<stop offset="0.25" stop-color="rgb(87.190247%, 86.956787%, 87.014771%)" stop-opacity="1"/>
<stop offset="0.261719" stop-color="rgb(87.359619%, 87.129211%, 87.187195%)" stop-opacity="1"/>
<stop offset="0.269531" stop-color="rgb(87.496948%, 87.268066%, 87.324524%)" stop-opacity="1"/>
<stop offset="0.277344" stop-color="rgb(87.631226%, 87.406921%, 87.463379%)" stop-opacity="1"/>
<stop offset="0.285156" stop-color="rgb(87.767029%, 87.54425%, 87.600708%)" stop-opacity="1"/>
<stop offset="0.292969" stop-color="rgb(87.901306%, 87.68158%, 87.736511%)" stop-opacity="1"/>
<stop offset="0.300781" stop-color="rgb(88.038635%, 87.820435%, 87.875366%)" stop-opacity="1"/>
<stop offset="0.308594" stop-color="rgb(88.175964%, 87.960815%, 88.014221%)" stop-opacity="1"/>
<stop offset="0.316406" stop-color="rgb(88.311768%, 88.098145%, 88.15155%)" stop-opacity="1"/>
<stop offset="0.324219" stop-color="rgb(88.446045%, 88.237%, 88.288879%)" stop-opacity="1"/>
<stop offset="0.332031" stop-color="rgb(88.580322%, 88.372803%, 88.424683%)" stop-opacity="1"/>
<stop offset="0.339844" stop-color="rgb(88.716125%, 88.511658%, 88.562012%)" stop-opacity="1"/>
<stop offset="0.347656" stop-color="rgb(88.853455%, 88.650513%, 88.700867%)" stop-opacity="1"/>
<stop offset="0.355469" stop-color="rgb(88.989258%, 88.789368%, 88.838196%)" stop-opacity="1"/>
<stop offset="0.363281" stop-color="rgb(89.125061%, 88.926697%, 88.975525%)" stop-opacity="1"/>
<stop offset="0.371094" stop-color="rgb(89.259338%, 89.064026%, 89.111328%)" stop-opacity="1"/>
<stop offset="0.378906" stop-color="rgb(89.46228%, 89.271545%, 89.318848%)" stop-opacity="1"/>
<stop offset="0.394531" stop-color="rgb(89.733887%, 89.547729%, 89.593506%)" stop-opacity="1"/>
<stop offset="0.410156" stop-color="rgb(90.005493%, 89.823914%, 89.868164%)" stop-opacity="1"/>
<stop offset="0.425781" stop-color="rgb(90.2771%, 90.101624%, 90.144348%)" stop-opacity="1"/>
<stop offset="0.441406" stop-color="rgb(90.54718%, 90.376282%, 90.419006%)" stop-opacity="1"/>
<stop offset="0.457031" stop-color="rgb(90.820312%, 90.652466%, 90.69519%)" stop-opacity="1"/>
<stop offset="0.472656" stop-color="rgb(91.091919%, 90.92865%, 90.969849%)" stop-opacity="1"/>
<stop offset="0.488281" stop-color="rgb(91.331482%, 91.172791%, 91.212463%)" stop-opacity="1"/>
<stop offset="0.503906" stop-color="rgb(91.552734%, 91.400146%, 91.438293%)" stop-opacity="1"/>
<stop offset="0.53125" stop-color="rgb(91.78772%, 91.638184%, 91.674805%)" stop-opacity="1"/>
<stop offset="0.558594" stop-color="rgb(92.021179%, 91.876221%, 91.911316%)" stop-opacity="1"/>
<stop offset="0.585938" stop-color="rgb(92.240906%, 92.098999%, 92.134094%)" stop-opacity="1"/>
<stop offset="0.609375" stop-color="rgb(92.440796%, 92.303467%, 92.337036%)" stop-opacity="1"/>
<stop offset="0.632812" stop-color="rgb(92.623901%, 92.489624%, 92.523193%)" stop-opacity="1"/>
<stop offset="0.652344" stop-color="rgb(92.790222%, 92.658997%, 92.692566%)" stop-opacity="1"/>
<stop offset="0.671875" stop-color="rgb(93.043518%, 92.91687%, 92.948914%)" stop-opacity="1"/>
<stop offset="0.710938" stop-color="rgb(93.360901%, 93.240356%, 93.269348%)" stop-opacity="1"/>
<stop offset="0.746094" stop-color="rgb(93.64624%, 93.530273%, 93.559265%)" stop-opacity="1"/>
<stop offset="0.777344" stop-color="rgb(93.896484%, 93.785095%, 93.812561%)" stop-opacity="1"/>
<stop offset="0.804688" stop-color="rgb(94.113159%, 94.006348%, 94.033813%)" stop-opacity="1"/>
<stop offset="0.828125" stop-color="rgb(94.299316%, 94.195557%, 94.221497%)" stop-opacity="1"/>
<stop offset="0.847656" stop-color="rgb(94.534302%, 94.433594%, 94.459534%)" stop-opacity="1"/>
<stop offset="0.882812" stop-color="rgb(94.799805%, 94.7052%, 94.728088%)" stop-opacity="1"/>
<stop offset="0.910156" stop-color="rgb(95.002747%, 94.911194%, 94.934082%)" stop-opacity="1"/>
<stop offset="0.929688" stop-color="rgb(95.237732%, 95.150757%, 95.172119%)" stop-opacity="1"/>
<stop offset="0.964844" stop-color="rgb(95.53833%, 95.457458%, 95.477295%)" stop-opacity="1"/>
<stop offset="1" stop-color="rgb(95.687866%, 95.610046%, 95.629883%)" stop-opacity="1"/>
</radialGradient>
</defs>
<rect x="-200" y="-200" width="2400" height="2400" fill="rgb(96.551514%, 96.488953%, 96.504211%)" fill-opacity="1"/>
<path fill-rule="nonzero" fill="rgb(91.363525%, 91.20636%, 91.246033%)" fill-opacity="1" d="M 1354.320312 1411.261719 L 1354.320312 1416.058594 L 1670.488281 1416.058594 L 1670.488281 1411.261719 L 1354.320312 1411.261719 "/>
<path fill-rule="nonzero" fill="rgb(91.363525%, 91.20636%, 91.246033%)" fill-opacity="1" d="M 1354.320312 1435.511719 L 1670.488281 1435.511719 L 1670.488281 1430.710938 L 1354.320312 1430.710938 L 1354.320312 1435.511719 "/>
<path fill-rule="nonzero" fill="rgb(91.363525%, 91.20636%, 91.246033%)" fill-opacity="1" d="M 1354.320312 1454.960938 L 1670.488281 1454.960938 L 1670.488281 1450.160156 L 1354.320312 1450.160156 L 1354.320312 1454.960938 "/>
<path fill-rule="nonzero" fill="rgb(91.363525%, 91.20636%, 91.246033%)" fill-opacity="1" d="M 329.515625 1411.261719 L 329.515625 1416.058594 L 645.6875 1416.058594 L 645.6875 1411.261719 L 329.515625 1411.261719 "/>
<path fill-rule="nonzero" fill="rgb(91.363525%, 91.20636%, 91.246033%)" fill-opacity="1" d="M 329.515625 1435.511719 L 645.6875 1435.511719 L 645.6875 1430.710938 L 329.515625 1430.710938 L 329.515625 1435.511719 "/>
<path fill-rule="nonzero" fill="rgb(91.363525%, 91.20636%, 91.246033%)" fill-opacity="1" d="M 329.515625 1454.960938 L 645.6875 1454.960938 L 645.6875 1450.160156 L 329.515625 1450.160156 L 329.515625 1454.960938 "/>
<path fill-rule="nonzero" fill="rgb(74.113464%, 73.643494%, 73.75946%)" fill-opacity="1" d="M 703.773438 1437.300781 L 703.773438 1454.480469 L 698.390625 1454.480469 L 698.390625 1437.300781 L 682.3125 1411.738281 L 688.1875 1411.738281 L 701 1432.5 L 701.164062 1432.5 L 713.976562 1411.738281 L 719.851562 1411.738281 L 703.773438 1437.300781 "/>
<path fill-rule="nonzero" fill="rgb(74.113464%, 73.643494%, 73.75946%)" fill-opacity="1" d="M 759.605469 1433.140625 C 759.605469 1430.269531 759.21875 1427.730469 758.4375 1425.539062 C 757.660156 1423.351562 756.585938 1421.511719 755.21875 1420.039062 C 753.847656 1418.570312 752.234375 1417.460938 750.378906 1416.710938 C 748.519531 1415.949219 746.519531 1415.570312 744.386719 1415.570312 C 742.25 1415.570312 740.253906 1415.949219 738.394531 1416.710938 C 736.535156 1417.460938 734.921875 1418.570312 733.554688 1420.039062 C 732.183594 1421.511719 731.109375 1423.351562 730.332031 1425.539062 C 729.554688 1427.730469 729.164062 1430.269531 729.164062 1433.140625 C 729.164062 1436.019531 729.558594 1438.550781 730.347656 1440.730469 C 731.140625 1442.910156 732.21875 1444.738281 733.585938 1446.210938 C 734.953125 1447.679688 736.570312 1448.789062 738.425781 1449.53125 C 740.285156 1450.28125 742.292969 1450.648438 744.453125 1450.648438 C 746.589844 1450.648438 748.574219 1450.28125 750.410156 1449.53125 C 752.246094 1448.789062 753.847656 1447.679688 755.21875 1446.210938 C 756.585938 1444.738281 757.660156 1442.910156 758.4375 1440.730469 C 759.21875 1438.550781 759.605469 1436.019531 759.605469 1433.140625 Z M 764.957031 1433.140625 C 764.957031 1436.378906 764.476562 1439.351562 763.515625 1442.058594 C 762.554688 1444.761719 761.179688 1447.089844 759.386719 1449.050781 C 757.597656 1451.011719 755.441406 1452.539062 752.917969 1453.640625 C 750.394531 1454.730469 747.574219 1455.28125 744.449219 1455.28125 C 741.21875 1455.28125 738.324219 1454.730469 735.769531 1453.640625 C 733.214844 1452.539062 731.054688 1451.011719 729.285156 1449.050781 C 727.515625 1447.089844 726.160156 1444.761719 725.222656 1442.058594 C 724.285156 1439.351562 723.816406 1436.378906 723.816406 1433.140625 C 723.816406 1429.878906 724.300781 1426.898438 725.273438 1424.179688 C 726.242188 1421.46875 727.621094 1419.128906 729.398438 1417.171875 C 731.179688 1415.210938 733.335938 1413.679688 735.867188 1412.578125 C 738.402344 1411.488281 741.242188 1410.941406 744.386719 1410.941406 C 747.597656 1410.941406 750.472656 1411.488281 753.015625 1412.578125 C 755.558594 1413.679688 757.71875 1415.210938 759.484375 1417.171875 C 761.253906 1419.128906 762.609375 1421.46875 763.546875 1424.179688 C 764.488281 1426.898438 764.957031 1429.878906 764.957031 1433.140625 "/>
<path fill-rule="nonzero" fill="rgb(74.113464%, 73.643494%, 73.75946%)" fill-opacity="1" d="M 791.933594 1450.648438 C 793.539062 1450.648438 794.964844 1450.46875 796.210938 1450.109375 C 797.453125 1449.738281 798.535156 1449.230469 799.460938 1448.570312 C 800.386719 1447.910156 801.15625 1447.121094 801.773438 1446.191406 C 802.390625 1445.269531 802.863281 1444.238281 803.191406 1443.109375 C 803.410156 1442.410156 803.566406 1441.621094 803.65625 1440.761719 C 803.742188 1439.898438 803.785156 1439.058594 803.785156 1438.25 L 803.785156 1411.738281 L 809.167969 1411.738281 L 809.167969 1438.128906 C 809.167969 1439.128906 809.113281 1440.171875 809.003906 1441.261719 C 808.894531 1442.339844 808.71875 1443.359375 808.476562 1444.289062 C 808.058594 1445.871094 807.429688 1447.328125 806.59375 1448.671875 C 805.757812 1450.011719 804.667969 1451.171875 803.324219 1452.148438 C 801.980469 1453.128906 800.367188 1453.898438 798.488281 1454.449219 C 796.605469 1455 794.398438 1455.28125 791.867188 1455.28125 C 789.445312 1455.28125 787.320312 1455.03125 785.492188 1454.519531 C 783.667969 1454 782.097656 1453.300781 780.789062 1452.390625 C 779.480469 1451.488281 778.40625 1450.410156 777.570312 1449.160156 C 776.734375 1447.921875 776.085938 1446.558594 775.621094 1445.089844 C 775.292969 1444.03125 775.054688 1442.890625 774.910156 1441.671875 C 774.769531 1440.460938 774.695312 1439.28125 774.695312 1438.128906 L 774.695312 1411.738281 L 780.078125 1411.738281 L 780.078125 1438.25 C 780.078125 1439.210938 780.148438 1440.199219 780.292969 1441.210938 C 780.4375 1442.21875 780.660156 1443.140625 780.972656 1443.96875 C 781.742188 1446.039062 783.023438 1447.671875 784.816406 1448.859375 C 786.609375 1450.050781 788.984375 1450.648438 791.933594 1450.648438 "/>
<path fill-rule="nonzero" fill="rgb(74.113464%, 73.643494%, 73.75946%)" fill-opacity="1" d="M 825.613281 1416.429688 L 825.613281 1432.089844 L 830.929688 1432.089844 C 832.578125 1432.089844 833.988281 1432.039062 835.152344 1431.929688 C 836.320312 1431.820312 837.367188 1431.628906 838.289062 1431.351562 C 840.160156 1430.800781 841.605469 1429.921875 842.617188 1428.699219 C 843.628906 1427.488281 844.136719 1425.898438 844.136719 1423.941406 C 844.113281 1422.109375 843.628906 1420.628906 842.683594 1419.519531 C 841.734375 1418.398438 840.425781 1417.601562 838.753906 1417.101562 C 837.960938 1416.871094 837.015625 1416.699219 835.914062 1416.589844 C 834.8125 1416.488281 833.414062 1416.429688 831.71875 1416.429688 Z M 825.613281 1436.78125 L 825.613281 1454.480469 L 820.230469 1454.480469 L 820.230469 1411.738281 L 831.675781 1411.738281 C 833.609375 1411.738281 835.253906 1411.808594 836.605469 1411.949219 C 837.957031 1412.078125 839.195312 1412.300781 840.316406 1412.601562 C 843.394531 1413.410156 845.746094 1414.789062 847.375 1416.738281 C 849 1418.691406 849.816406 1421.121094 849.816406 1424.039062 C 849.816406 1425.761719 849.527344 1427.308594 848.957031 1428.671875 C 848.382812 1430.03125 847.578125 1431.21875 846.546875 1432.21875 C 845.511719 1433.21875 844.273438 1434.039062 842.832031 1434.679688 C 841.390625 1435.320312 839.789062 1435.78125 838.027344 1436.078125 L 838.027344 1436.210938 L 851.101562 1454.480469 L 845.71875 1454.480469 L 832.117188 1436.78125 L 825.613281 1436.78125 "/>
<path fill-rule="nonzero" fill="rgb(74.113464%, 73.643494%, 73.75946%)" fill-opacity="1" d="M 889.964844 1423.050781 C 889.964844 1424.300781 890.230469 1425.339844 890.757812 1426.160156 C 891.28125 1426.980469 891.988281 1427.660156 892.878906 1428.191406 C 893.769531 1428.71875 894.800781 1429.160156 895.972656 1429.5 C 897.148438 1429.839844 898.371094 1430.160156 899.644531 1430.460938 C 901.359375 1430.859375 903.042969 1431.308594 904.699219 1431.800781 C 906.355469 1432.289062 907.832031 1432.96875 909.128906 1433.828125 C 910.421875 1434.691406 911.472656 1435.820312 912.273438 1437.199219 C 913.074219 1438.578125 913.476562 1440.359375 913.476562 1442.53125 C 913.476562 1444.75 913.039062 1446.660156 912.171875 1448.269531 C 911.304688 1449.878906 910.105469 1451.199219 908.574219 1452.230469 C 907.042969 1453.261719 905.230469 1454.03125 903.140625 1454.53125 C 901.050781 1455.03125 898.757812 1455.28125 896.273438 1455.28125 C 895.128906 1455.28125 893.957031 1455.210938 892.757812 1455.070312 C 891.554688 1454.941406 890.410156 1454.75 889.320312 1454.519531 C 888.230469 1454.28125 887.246094 1454.019531 886.367188 1453.71875 C 885.484375 1453.421875 884.792969 1453.121094 884.285156 1452.820312 L 884.285156 1448.058594 C 885.078125 1448.449219 885.972656 1448.800781 886.960938 1449.121094 C 887.953125 1449.441406 888.976562 1449.710938 890.03125 1449.929688 C 891.089844 1450.148438 892.15625 1450.328125 893.234375 1450.460938 C 894.3125 1450.589844 895.324219 1450.648438 896.273438 1450.648438 C 897.8125 1450.648438 899.28125 1450.519531 900.679688 1450.269531 C 902.078125 1450.011719 903.304688 1449.578125 904.363281 1448.988281 C 905.417969 1448.390625 906.253906 1447.578125 906.871094 1446.539062 C 907.488281 1445.511719 907.796875 1444.21875 907.796875 1442.660156 C 907.796875 1441.390625 907.527344 1440.328125 906.988281 1439.5 C 906.445312 1438.671875 905.726562 1437.980469 904.824219 1437.441406 C 903.921875 1436.898438 902.882812 1436.449219 901.703125 1436.109375 C 900.527344 1435.769531 899.289062 1435.449219 897.988281 1435.160156 C 896.273438 1434.769531 894.59375 1434.339844 892.953125 1433.859375 C 891.3125 1433.378906 889.851562 1432.71875 888.5625 1431.859375 C 887.273438 1431.011719 886.238281 1429.921875 885.457031 1428.570312 C 884.675781 1427.230469 884.285156 1425.519531 884.285156 1423.429688 C 884.285156 1421.261719 884.695312 1419.390625 885.519531 1417.820312 C 886.339844 1416.261719 887.449219 1414.96875 888.851562 1413.941406 C 890.253906 1412.921875 891.871094 1412.160156 893.695312 1411.671875 C 895.523438 1411.179688 897.472656 1410.941406 899.539062 1410.941406 C 901.894531 1410.941406 904.09375 1411.160156 906.128906 1411.589844 C 908.164062 1412.03125 910.03125 1412.601562 911.726562 1413.300781 L 911.726562 1418.128906 C 909.898438 1417.378906 908.011719 1416.78125 906.0625 1416.308594 C 904.113281 1415.839844 902.027344 1415.589844 899.804688 1415.570312 C 898.132812 1415.570312 896.679688 1415.75 895.445312 1416.101562 C 894.214844 1416.449219 893.191406 1416.949219 892.375 1417.601562 C 891.5625 1418.25 890.957031 1419.039062 890.558594 1419.960938 C 890.164062 1420.890625 889.964844 1421.921875 889.964844 1423.050781 "/>
<path fill-rule="nonzero" fill="rgb(74.113464%, 73.643494%, 73.75946%)" fill-opacity="1" d="M 928.367188 1411.738281 L 928.367188 1449.789062 L 949.925781 1449.789062 L 949.925781 1454.480469 L 922.984375 1454.480469 L 922.984375 1411.738281 L 928.367188 1411.738281 "/>
<path fill-rule="nonzero" fill="rgb(74.113464%, 73.643494%, 73.75946%)" fill-opacity="1" d="M 989.683594 1433.140625 C 989.683594 1430.269531 989.292969 1427.730469 988.515625 1425.539062 C 987.734375 1423.351562 986.660156 1421.511719 985.292969 1420.039062 C 983.925781 1418.570312 982.3125 1417.460938 980.453125 1416.710938 C 978.59375 1415.949219 976.597656 1415.570312 974.460938 1415.570312 C 972.324219 1415.570312 970.328125 1415.949219 968.46875 1416.710938 C 966.609375 1417.460938 964.996094 1418.570312 963.628906 1420.039062 C 962.261719 1421.511719 961.1875 1423.351562 960.40625 1425.539062 C 959.628906 1427.730469 959.238281 1430.269531 959.238281 1433.140625 C 959.238281 1436.019531 959.632812 1438.550781 960.425781 1440.730469 C 961.214844 1442.910156 962.292969 1444.738281 963.660156 1446.210938 C 965.03125 1447.679688 966.644531 1448.789062 968.503906 1449.53125 C 970.359375 1450.28125 972.367188 1450.648438 974.527344 1450.648438 C 976.664062 1450.648438 978.648438 1450.28125 980.484375 1449.53125 C 982.320312 1448.789062 983.925781 1447.679688 985.292969 1446.210938 C 986.660156 1444.738281 987.734375 1442.910156 988.515625 1440.730469 C 989.292969 1438.550781 989.683594 1436.019531 989.683594 1433.140625 Z M 995.03125 1433.140625 C 995.03125 1436.378906 994.550781 1439.351562 993.589844 1442.058594 C 992.628906 1444.761719 991.253906 1447.089844 989.464844 1449.050781 C 987.671875 1451.011719 985.515625 1452.539062 982.992188 1453.640625 C 980.472656 1454.730469 977.648438 1455.28125 974.527344 1455.28125 C 971.292969 1455.28125 968.402344 1454.730469 965.847656 1453.640625 C 963.289062 1452.539062 961.128906 1451.011719 959.359375 1449.050781 C 957.589844 1447.089844 956.238281 1444.761719 955.300781 1442.058594 C 954.359375 1439.351562 953.890625 1436.378906 953.890625 1433.140625 C 953.890625 1429.878906 954.375 1426.898438 955.347656 1424.179688 C 956.320312 1421.46875 957.695312 1419.128906 959.476562 1417.171875 C 961.253906 1415.210938 963.410156 1413.679688 965.945312 1412.578125 C 968.476562 1411.488281 971.316406 1410.941406 974.460938 1410.941406 C 977.671875 1410.941406 980.546875 1411.488281 983.09375 1412.578125 C 985.636719 1413.679688 987.792969 1415.210938 989.5625 1417.171875 C 991.328125 1419.128906 992.683594 1421.46875 993.621094 1424.179688 C 994.5625 1426.898438 995.03125 1429.878906 995.03125 1433.140625 "/>
<path fill-rule="nonzero" fill="rgb(74.113464%, 73.643494%, 73.75946%)" fill-opacity="1" d="M 1033.828125 1437.199219 L 1023.761719 1437.199219 L 1023.761719 1432.5 L 1039.210938 1432.5 L 1039.210938 1453.171875 C 1038.75 1453.410156 1038.070312 1453.648438 1037.179688 1453.890625 C 1036.289062 1454.140625 1035.269531 1454.371094 1034.128906 1454.578125 C 1032.980469 1454.789062 1031.75 1454.960938 1030.441406 1455.089844 C 1029.128906 1455.21875 1027.839844 1455.28125 1026.558594 1455.28125 C 1022.78125 1455.28125 1019.441406 1454.78125 1016.539062 1453.78125 C 1013.648438 1452.78125 1011.21875 1451.359375 1009.261719 1449.53125 C 1007.300781 1447.699219 1005.820312 1445.46875 1004.800781 1442.851562 C 1003.789062 1440.230469 1003.289062 1437.320312 1003.289062 1434.101562 C 1003.289062 1430.609375 1003.839844 1427.441406 1004.949219 1424.578125 C 1006.058594 1421.730469 1007.671875 1419.289062 1009.769531 1417.261719 C 1011.878906 1415.238281 1014.421875 1413.679688 1017.398438 1412.578125 C 1020.378906 1411.488281 1023.671875 1410.941406 1027.261719 1410.941406 C 1028.230469 1410.941406 1029.191406 1410.980469 1030.160156 1411.050781 C 1031.128906 1411.128906 1032.058594 1411.230469 1032.941406 1411.371094 C 1033.820312 1411.511719 1034.628906 1411.671875 1035.378906 1411.871094 C 1036.128906 1412.058594 1036.761719 1412.261719 1037.261719 1412.46875 L 1037.261719 1417.070312 C 1035.941406 1416.648438 1034.421875 1416.289062 1032.710938 1416 C 1030.988281 1415.71875 1029.269531 1415.570312 1027.558594 1415.570312 C 1025.050781 1415.570312 1022.648438 1415.941406 1020.371094 1416.671875 C 1018.101562 1417.410156 1016.089844 1418.519531 1014.351562 1420.011719 C 1012.609375 1421.5 1011.21875 1423.371094 1010.191406 1425.621094 C 1009.148438 1427.871094 1008.640625 1430.5 1008.640625 1433.53125 C 1008.640625 1436.488281 1009.058594 1439.039062 1009.921875 1441.191406 C 1010.78125 1443.351562 1012 1445.121094 1013.570312 1446.53125 C 1015.140625 1447.929688 1017.050781 1448.96875 1019.289062 1449.640625 C 1021.53125 1450.308594 1024.03125 1450.648438 1026.769531 1450.648438 C 1028.039062 1450.648438 1029.289062 1450.589844 1030.53125 1450.460938 C 1031.769531 1450.328125 1032.871094 1450.148438 1033.828125 1449.910156 L 1033.828125 1437.199219 "/>
<path fill-rule="nonzero" fill="rgb(74.113464%, 73.643494%, 73.75946%)" fill-opacity="1" d="M 1065.921875 1418.378906 C 1063.949219 1423.699219 1062.070312 1428.539062 1060.28125 1432.890625 L 1058.621094 1436.910156 L 1073.269531 1436.910156 L 1071.589844 1432.890625 C 1069.78125 1428.460938 1067.929688 1423.628906 1066.050781 1418.378906 Z M 1045.648438 1454.480469 L 1063.640625 1411.738281 L 1068.300781 1411.738281 L 1086.289062 1454.480469 L 1080.449219 1454.480469 L 1075.171875 1441.609375 L 1056.699219 1441.609375 L 1051.429688 1454.480469 L 1045.648438 1454.480469 "/>
<path fill-rule="nonzero" fill="rgb(74.113464%, 73.643494%, 73.75946%)" fill-opacity="1" d="M 1115.75 1435.570312 C 1118.460938 1439.339844 1121.128906 1443.21875 1123.769531 1447.199219 L 1123.96875 1447.199219 C 1123.679688 1443.050781 1123.539062 1438.808594 1123.539062 1434.480469 L 1123.539062 1411.738281 L 1128.960938 1411.738281 L 1128.960938 1454.480469 L 1123.570312 1454.480469 L 1106.238281 1430.648438 C 1103.238281 1426.5 1100.570312 1422.621094 1098.210938 1419.019531 L 1098.019531 1419.019531 C 1098.300781 1422.921875 1098.449219 1427.46875 1098.449219 1432.660156 L 1098.449219 1454.480469 L 1093.058594 1454.480469 L 1093.058594 1411.738281 L 1098.410156 1411.738281 L 1115.75 1435.570312 "/>
<path fill-rule="nonzero" fill="rgb(74.113464%, 73.643494%, 73.75946%)" fill-opacity="1" d="M 1172.609375 1430.238281 L 1195.75 1430.238281 L 1195.75 1411.738281 L 1201.128906 1411.738281 L 1201.128906 1454.480469 L 1195.75 1454.480469 L 1195.75 1434.929688 L 1172.609375 1434.929688 L 1172.609375 1454.480469 L 1167.21875 1454.480469 L 1167.21875 1411.738281 L 1172.609375 1411.738281 L 1172.609375 1430.238281 "/>
<path fill-rule="nonzero" fill="rgb(74.113464%, 73.643494%, 73.75946%)" fill-opacity="1" d="M 1217.738281 1449.789062 L 1240.390625 1449.789062 L 1240.390625 1454.480469 L 1212.359375 1454.480469 L 1212.359375 1411.738281 L 1239.171875 1411.738281 L 1239.171875 1416.429688 L 1217.738281 1416.429688 L 1217.738281 1430.238281 L 1236.789062 1430.238281 L 1236.789062 1434.929688 L 1217.738281 1434.929688 L 1217.738281 1449.789062 "/>
<path fill-rule="nonzero" fill="rgb(74.113464%, 73.643494%, 73.75946%)" fill-opacity="1" d="M 1255.019531 1416.429688 L 1255.019531 1432.089844 L 1260.339844 1432.089844 C 1261.988281 1432.089844 1263.398438 1432.039062 1264.558594 1431.929688 C 1265.730469 1431.820312 1266.78125 1431.628906 1267.699219 1431.351562 C 1269.570312 1430.800781 1271.011719 1429.921875 1272.03125 1428.699219 C 1273.039062 1427.488281 1273.539062 1425.898438 1273.539062 1423.941406 C 1273.519531 1422.109375 1273.039062 1420.628906 1272.089844 1419.519531 C 1271.148438 1418.398438 1269.839844 1417.601562 1268.160156 1417.101562 C 1267.371094 1416.871094 1266.421875 1416.699219 1265.320312 1416.589844 C 1264.21875 1416.488281 1262.820312 1416.429688 1261.128906 1416.429688 Z M 1255.019531 1436.78125 L 1255.019531 1454.480469 L 1249.640625 1454.480469 L 1249.640625 1411.738281 L 1261.078125 1411.738281 C 1263.019531 1411.738281 1264.660156 1411.808594 1266.011719 1411.949219 C 1267.371094 1412.078125 1268.601562 1412.300781 1269.730469 1412.601562 C 1272.800781 1413.410156 1275.160156 1414.789062 1276.78125 1416.738281 C 1278.410156 1418.691406 1279.21875 1421.121094 1279.21875 1424.039062 C 1279.21875 1425.761719 1278.941406 1427.308594 1278.371094 1428.671875 C 1277.789062 1430.03125 1276.988281 1431.21875 1275.960938 1432.21875 C 1274.921875 1433.21875 1273.679688 1434.039062 1272.238281 1434.679688 C 1270.800781 1435.320312 1269.199219 1435.78125 1267.441406 1436.078125 L 1267.441406 1436.210938 L 1280.511719 1454.480469 L 1275.128906 1454.480469 L 1261.53125 1436.78125 L 1255.019531 1436.78125 "/>
<path fill-rule="nonzero" fill="rgb(74.113464%, 73.643494%, 73.75946%)" fill-opacity="1" d="M 1295.039062 1449.789062 L 1317.691406 1449.789062 L 1317.691406 1454.480469 L 1289.660156 1454.480469 L 1289.660156 1411.738281 L 1316.46875 1411.738281 L 1316.46875 1416.429688 L 1295.039062 1416.429688 L 1295.039062 1430.238281 L 1314.089844 1430.238281 L 1314.089844 1434.929688 L 1295.039062 1434.929688 L 1295.039062 1449.789062 "/>
<path fill-rule="nonzero" fill="rgb(13.729858%, 12.159729%, 12.548828%)" fill-opacity="1" d="M 814.910156 1319.808594 C 823.925781 1331.320312 832.832031 1343.160156 841.628906 1355.308594 L 842.289062 1355.308594 C 841.335938 1342.628906 840.859375 1329.699219 840.859375 1316.5 L 840.859375 1247.050781 L 858.890625 1247.050781 L 858.890625 1377.550781 L 840.96875 1377.550781 L 783.246094 1304.789062 C 773.28125 1292.109375 764.375 1280.28125 756.53125 1269.289062 L 755.871094 1269.289062 C 756.824219 1281.191406 757.300781 1295.070312 757.300781 1310.941406 L 757.300781 1377.550781 L 739.382812 1377.550781 L 739.382812 1247.050781 L 757.191406 1247.050781 L 814.910156 1319.808594 "/>
<path fill-rule="nonzero" fill="rgb(39.677429%, 38.580322%, 38.851929%)" fill-opacity="1" d="M 1167.828125 1319.808594 C 1176.839844 1331.320312 1185.75 1343.160156 1194.539062 1355.308594 L 1195.199219 1355.308594 C 1194.25 1342.628906 1193.78125 1329.699219 1193.78125 1316.5 L 1193.78125 1247.050781 L 1211.808594 1247.050781 L 1211.808594 1377.550781 L 1193.890625 1377.550781 L 1136.171875 1304.789062 C 1126.199219 1292.109375 1117.289062 1280.28125 1109.449219 1269.289062 L 1108.789062 1269.289062 C 1109.738281 1281.191406 1110.21875 1295.070312 1110.21875 1310.941406 L 1110.21875 1377.550781 L 1092.300781 1377.550781 L 1092.300781 1247.050781 L 1110.109375 1247.050781 L 1167.828125 1319.808594 "/>
<path fill-rule="nonzero" fill="rgb(39.677429%, 38.580322%, 38.851929%)" fill-opacity="1" d="M 1470.058594 1377.550781 L 1461.820312 1377.550781 L 1424.769531 1299.621094 C 1419.628906 1288.898438 1414.5 1277.230469 1409.371094 1264.609375 L 1408.488281 1264.609375 C 1409.519531 1282.75 1410.03125 1299.359375 1410.03125 1314.449219 L 1410.03125 1377.550781 L 1392.109375 1377.550781 L 1392.109375 1247.050781 L 1417.949219 1247.050781 L 1452.578125 1320.890625 C 1456.539062 1329.339844 1460.898438 1339.511719 1465.660156 1351.410156 L 1466.210938 1351.410156 C 1471.488281 1338.210938 1475.851562 1328.039062 1479.300781 1320.890625 L 1513.929688 1247.050781 L 1539.769531 1247.050781 L 1539.769531 1377.550781 L 1521.851562 1377.550781 L 1521.851562 1314.449219 C 1521.851562 1299.691406 1522.359375 1283.078125 1523.378906 1264.609375 L 1522.5 1264.609375 C 1517.078125 1277.941406 1511.949219 1289.609375 1507.109375 1299.621094 L 1470.058594 1377.550781 "/>
<path fill-rule="nonzero" fill="rgb(39.677429%, 38.580322%, 38.851929%)" fill-opacity="1" d="M 1595.070312 1363.210938 L 1670.488281 1363.210938 L 1670.488281 1377.550781 L 1577.148438 1377.550781 L 1577.148438 1247.050781 L 1666.421875 1247.050781 L 1666.421875 1261.390625 L 1595.070312 1261.390625 L 1595.070312 1303.53125 L 1658.5 1303.53125 L 1658.5 1317.859375 L 1595.070312 1317.859375 L 1595.070312 1363.210938 "/>
<path fill-rule="nonzero" fill="rgb(13.729858%, 12.159729%, 12.548828%)" fill-opacity="1" d="M 656.925781 1247.050781 L 641.421875 1247.050781 L 581.503906 1377.550781 L 600.742188 1377.550781 L 643.394531 1281.039062 C 645.242188 1276.589844 647.109375 1272.039062 649.007812 1267.339844 L 649.449219 1267.339844 C 655.703125 1283.351562 661.851562 1298.121094 667.886719 1311.628906 L 673.464844 1323.910156 L 635.839844 1323.910156 L 629.503906 1338.25 L 679.816406 1338.25 L 697.382812 1377.550781 L 716.84375 1377.550781 L 656.925781 1247.050781 "/>
<path fill-rule="nonzero" fill="rgb(13.729858%, 12.159729%, 12.548828%)" fill-opacity="1" d="M 522.355469 1321.761719 L 522.355469 1321.371094 C 528.21875 1320.460938 533.550781 1319.03125 538.351562 1317.078125 C 543.148438 1315.128906 547.273438 1312.628906 550.71875 1309.570312 C 554.164062 1306.519531 556.839844 1302.910156 558.746094 1298.75 C 560.648438 1294.589844 561.601562 1289.871094 561.601562 1284.601562 C 561.601562 1275.699219 558.894531 1268.269531 553.476562 1262.320312 C 548.058594 1256.371094 540.222656 1252.160156 529.976562 1249.691406 C 526.242188 1248.78125 522.121094 1248.109375 517.617188 1247.691406 C 513.117188 1247.269531 507.644531 1247.050781 501.203125 1247.050781 L 463.09375 1247.050781 L 463.09375 1377.550781 L 481.015625 1377.550781 L 481.015625 1261.390625 L 501.355469 1261.390625 C 506.996094 1261.390625 511.652344 1261.550781 515.316406 1261.878906 C 518.980469 1262.210938 522.132812 1262.71875 524.773438 1263.441406 C 530.34375 1264.941406 534.703125 1267.390625 537.855469 1270.800781 C 541.007812 1274.21875 542.617188 1278.71875 542.691406 1284.308594 C 542.691406 1290.300781 541.007812 1295.140625 537.636719 1298.839844 C 534.261719 1302.550781 529.460938 1305.25 523.234375 1306.941406 C 520.15625 1307.789062 516.671875 1308.371094 512.789062 1308.691406 C 508.902344 1309.019531 504.214844 1309.179688 498.714844 1309.179688 L 491.335938 1309.179688 L 491.335938 1323.519531 L 502.675781 1323.519531 L 547.96875 1377.550781 L 565.890625 1377.550781 L 522.355469 1321.761719 "/>
<path fill-rule="nonzero" fill="rgb(13.729858%, 12.159729%, 12.548828%)" fill-opacity="1" d="M 428.570312 1327.960938 C 427.179688 1324.609375 425.179688 1321.71875 422.578125 1319.28125 C 419.976562 1316.839844 416.863281 1314.839844 413.234375 1313.28125 C 409.605469 1311.71875 405.519531 1310.648438 400.976562 1310.058594 L 400.976562 1309.671875 C 405.226562 1308.371094 408.839844 1306.738281 411.804688 1304.789062 C 414.773438 1302.839844 417.191406 1300.628906 419.0625 1298.160156 C 420.929688 1295.691406 422.285156 1292.988281 423.128906 1290.070312 C 423.972656 1287.140625 424.394531 1284.078125 424.394531 1280.898438 C 424.394531 1276.929688 423.6875 1273.261719 422.273438 1269.878906 C 420.863281 1266.5 418.851562 1263.46875 416.242188 1260.808594 C 413.632812 1258.140625 410.464844 1255.851562 406.734375 1253.929688 C 403.003906 1252.011719 398.851562 1250.5 394.289062 1249.398438 C 392.550781 1249.011719 390.703125 1248.660156 388.746094 1248.371094 C 386.789062 1248.078125 384.667969 1247.839844 382.386719 1247.640625 C 380.105469 1247.441406 377.605469 1247.300781 374.886719 1247.199219 C 372.171875 1247.101562 369.144531 1247.050781 365.8125 1247.050781 L 329.511719 1247.050781 L 329.511719 1377.550781 L 347.433594 1377.550781 L 347.433594 1261.390625 L 367.554688 1261.390625 C 372.535156 1261.390625 376.863281 1261.539062 380.527344 1261.828125 C 384.191406 1262.121094 387.414062 1262.628906 390.203125 1263.339844 C 395.84375 1264.839844 399.988281 1267.109375 402.625 1270.171875 C 405.265625 1273.230469 406.585938 1277.160156 406.585938 1281.96875 C 406.585938 1286.648438 405.320312 1290.71875 402.789062 1294.160156 C 400.261719 1297.609375 396.25 1300.148438 390.753906 1301.769531 C 388.699219 1302.351562 386.390625 1302.789062 383.824219 1303.089844 C 381.257812 1303.378906 378.21875 1303.53125 374.699219 1303.53125 L 357 1303.53125 L 357 1317.859375 L 375.46875 1317.859375 C 379.648438 1317.859375 383.148438 1317.960938 385.96875 1318.148438 C 388.789062 1318.351562 391.300781 1318.679688 393.5 1319.128906 C 397.164062 1319.851562 400.222656 1320.851562 402.679688 1322.148438 C 405.136719 1323.460938 407.113281 1324.96875 408.617188 1326.691406 C 410.117188 1328.410156 411.199219 1330.359375 411.859375 1332.539062 C 412.519531 1334.71875 412.851562 1337.039062 412.851562 1339.511719 C 412.851562 1341.660156 412.539062 1343.769531 411.914062 1345.851562 C 411.292969 1347.941406 410.265625 1349.898438 408.839844 1351.75 C 407.40625 1353.609375 405.519531 1355.300781 403.175781 1356.828125 C 400.828125 1358.351562 397.96875 1359.609375 394.601562 1360.578125 C 391.519531 1361.488281 387.78125 1362.160156 383.386719 1362.578125 C 378.988281 1363 374.222656 1363.21875 369.09375 1363.21875 L 357 1363.21875 L 357 1377.550781 L 367.144531 1377.550781 C 374.539062 1377.550781 380.886719 1377.289062 386.175781 1376.769531 C 391.46875 1376.25 396.292969 1375.339844 400.644531 1374.039062 C 406.300781 1372.351562 411.03125 1370.171875 414.835938 1367.511719 C 418.644531 1364.839844 421.722656 1361.929688 424.078125 1358.78125 C 426.4375 1355.621094 428.121094 1352.371094 429.136719 1349.019531 C 430.152344 1345.679688 430.660156 1342.46875 430.660156 1339.421875 C 430.660156 1335.128906 429.964844 1331.308594 428.570312 1327.960938 "/>
<path fill-rule="nonzero" fill="rgb(13.729858%, 12.159729%, 12.548828%)" fill-opacity="1" d="M 1012.199219 1290.601562 C 1010.121094 1284.070312 1006.960938 1278.179688 1002.75 1272.949219 C 998.535156 1267.71875 993.21875 1263.179688 986.808594 1259.339844 C 980.394531 1255.511719 972.898438 1252.519531 964.324219 1250.371094 C 959.414062 1249.140625 954.101562 1248.269531 948.382812 1247.789062 C 942.664062 1247.300781 936.46875 1247.050781 929.804688 1247.050781 L 896.160156 1247.050781 L 896.160156 1377.550781 L 914.078125 1377.550781 L 914.078125 1261.390625 L 927.785156 1261.390625 C 934.691406 1261.390625 940.894531 1261.621094 946.390625 1262.070312 C 951.886719 1262.53125 956.863281 1263.378906 961.316406 1264.609375 C 972.980469 1267.859375 981.929688 1273.390625 988.167969 1281.191406 C 994.40625 1288.988281 997.527344 1299.171875 997.527344 1311.71875 C 997.527344 1324.398438 994.40625 1334.800781 988.167969 1342.929688 C 981.929688 1351.058594 972.980469 1356.75 961.316406 1360 C 956.863281 1361.230469 951.886719 1362.078125 946.390625 1362.53125 C 940.894531 1362.988281 934.691406 1363.21875 927.785156 1363.21875 L 924.066406 1363.21875 L 924.066406 1377.550781 L 929.472656 1377.550781 C 936.140625 1377.550781 942.335938 1377.308594 948.054688 1376.820312 C 953.769531 1376.328125 959.082031 1375.46875 963.996094 1374.238281 C 972.570312 1372.089844 980.0625 1369.070312 986.476562 1365.171875 C 992.890625 1361.261719 998.242188 1356.628906 1002.53125 1351.269531 C 1006.820312 1345.898438 1010.019531 1339.871094 1012.148438 1333.179688 C 1014.269531 1326.480469 1015.339844 1319.328125 1015.339844 1311.71875 C 1015.339844 1304.179688 1014.289062 1297.140625 1012.199219 1290.601562 "/>
<path fill-rule="nonzero" fill="rgb(39.677429%, 38.580322%, 38.851929%)" fill-opacity="1" d="M 1301.738281 1267.339844 C 1299.839844 1272.039062 1297.96875 1276.589844 1296.121094 1281.039062 L 1302.179688 1267.339844 L 1301.738281 1267.339844 "/>
<path fill-rule="nonzero" fill="rgb(39.677429%, 38.580322%, 38.851929%)" fill-opacity="1" d="M 1309.660156 1247.050781 L 1294.148438 1247.050781 L 1234.230469 1377.550781 L 1253.46875 1377.550781 L 1296.121094 1281.039062 C 1297.96875 1276.589844 1299.839844 1272.039062 1301.738281 1267.339844 L 1302.179688 1267.339844 C 1308.441406 1283.351562 1314.578125 1298.121094 1320.621094 1311.628906 L 1326.199219 1323.910156 L 1286 1323.910156 L 1279.660156 1338.25 L 1332.550781 1338.25 L 1350.109375 1377.550781 L 1369.570312 1377.550781 L 1309.660156 1247.050781 "/>
<path fill-rule="nonzero" fill="rgb(55.299377%, 81.578064%, 14.021301%)" fill-opacity="1" d="M 957.585938 1057.441406 L 957.585938 973.089844 L 873.238281 973.089844 L 873.238281 888.261719 L 957.585938 888.261719 L 957.585938 803.910156 L 1000 803.910156 L 1000 544.71875 C 980.804688 564.210938 884.175781 666.300781 884.175781 827.410156 C 884.175781 828.460938 884.195312 829.488281 884.207031 830.539062 C 883.472656 829.789062 882.753906 829.039062 882.011719 828.300781 C 825.703125 771.988281 762.90625 742.578125 710.476562 727.210938 C 656.839844 711.46875 614.054688 710.421875 600.222656 710.308594 C 600.429688 737.671875 604.296875 878.191406 718.210938 992.101562 C 832.125 1106.019531 972.644531 1109.878906 1000 1110.089844 L 1000 1057.441406 L 957.585938 1057.441406 "/>
<path fill-rule="nonzero" fill="rgb(64.698792%, 84.379578%, 11.073303%)" fill-opacity="1" d="M 1289.519531 727.210938 C 1237.101562 742.578125 1174.300781 771.988281 1117.988281 828.300781 C 1117.25 829.039062 1116.53125 829.789062 1115.800781 830.539062 C 1115.800781 829.488281 1115.820312 828.449219 1115.820312 827.410156 C 1115.820312 747.769531 1092.210938 682.570312 1066.019531 634.628906 C 1039.21875 585.570312 1009.710938 554.578125 1000 544.71875 L 1000 803.910156 L 1042.410156 803.910156 L 1042.410156 888.261719 L 1126.761719 888.261719 L 1126.761719 973.089844 L 1042.410156 973.089844 L 1042.410156 1057.441406 L 1000 1057.441406 L 1000 1110.089844 C 1027.359375 1109.878906 1167.878906 1106.019531 1281.789062 992.101562 C 1395.699219 878.191406 1399.570312 737.671875 1399.78125 710.308594 C 1385.941406 710.421875 1343.160156 711.46875 1289.519531 727.210938 "/>
<g clip-path="url(#clip-0)">
<g clip-path="url(#clip-1)">
<g clip-path="url(#clip-2)">
<path fill-rule="nonzero" fill="url(#radial-pattern-0)" d="M 700.472656 1178.558594 L 700.472656 1187.558594 L 1299.53125 1187.558594 L 1299.53125 1178.558594 Z M 700.472656 1178.558594 "/>
</g>
</g>
</g>
</svg>
