<?xml version="1.0" encoding="UTF-8"?>
<svg xmlns="http://www.w3.org/2000/svg" xmlns:xlink="http://www.w3.org/1999/xlink" width="4000" height="4000" viewBox="0 0 4000 4000">
<rect x="-400" y="-400" width="4800" height="4800" fill="rgb(99.609375%, 99.609375%, 99.609375%)" fill-opacity="1"/>
<path fill-rule="nonzero" fill="rgb(0%, 0%, 0%)" fill-opacity="1" d="M 1054.839844 2495.171875 L 1098.519531 2495.171875 L 1098.519531 2684.019531 L 1163.078125 2684.019531 L 1163.078125 2725.769531 L 1054.839844 2725.769531 Z M 1299.378906 2489.390625 C 1331.980469 2489.390625 1360.019531 2501.21875 1383.46875 2524.820312 C 1406.96875 2548.429688 1418.691406 2577.230469 1418.691406 2611.171875 C 1418.691406 2644.839844 1407.128906 2673.320312 1383.949219 2696.601562 C 1360.828125 2719.890625 1332.71875 2731.558594 1299.699219 2731.558594 C 1265.058594 2731.558594 1236.320312 2719.570312 1213.460938 2695.640625 C 1190.550781 2671.710938 1179.089844 2643.289062 1179.089844 2610.371094 C 1179.089844 2588.359375 1184.449219 2568.078125 1195.101562 2549.558594 C 1205.75 2531.089844 1220.421875 2516.421875 1239.050781 2505.609375 C 1257.730469 2494.789062 1277.859375 2489.390625 1299.378906 2489.390625 Z M 1298.730469 2532.429688 C 1277.480469 2532.429688 1259.601562 2539.871094 1245.148438 2554.691406 C 1230.640625 2569.519531 1223.421875 2588.359375 1223.421875 2611.269531 C 1223.421875 2636.761719 1232.519531 2656.941406 1250.769531 2671.761719 C 1264.960938 2683.378906 1281.179688 2689.160156 1299.539062 2689.160156 C 1320.25 2689.160156 1337.921875 2681.609375 1352.480469 2666.570312 C 1367.089844 2651.53125 1374.371094 2633.011719 1374.371094 2610.949219 C 1374.371094 2589.011719 1367.039062 2570.429688 1352.320312 2555.230469 C 1337.648438 2540.03125 1319.769531 2532.429688 1298.730469 2532.429688 Z M 1667.78125 2532.851562 L 1636.890625 2563.421875 C 1617.351562 2542.761719 1594.550781 2532.429688 1568.53125 2532.429688 C 1545.890625 2532.429688 1526.890625 2539.921875 1511.578125 2554.960938 C 1496.269531 2570 1488.609375 2588.261719 1488.609375 2609.78125 C 1488.609375 2631.988281 1496.539062 2650.828125 1512.441406 2666.300781 C 1528.328125 2681.769531 1547.929688 2689.480469 1571.210938 2689.480469 C 1586.359375 2689.480469 1599.148438 2686.269531 1609.539062 2679.898438 C 1619.921875 2673.53125 1628.328125 2663.570312 1634.699219 2649.980469 L 1567.941406 2649.980469 L 1567.941406 2608.871094 L 1683.890625 2608.871094 L 1684.210938 2618.558594 C 1684.210938 2638.738281 1678.96875 2657.851562 1668.53125 2675.941406 C 1658.039062 2693.980469 1644.488281 2707.789062 1627.898438 2717.320312 C 1611.25 2726.789062 1591.710938 2731.558594 1569.339844 2731.558594 C 1545.410156 2731.558594 1524.050781 2726.359375 1505.261719 2715.980469 C 1486.46875 2705.539062 1471.648438 2690.769531 1460.671875 2671.550781 C 1449.75 2652.28125 1444.289062 2631.558594 1444.289062 2609.289062 C 1444.289062 2578.78125 1454.410156 2552.230469 1474.589844 2529.699219 C 1498.519531 2502.820312 1529.730469 2489.390625 1568.109375 2489.390625 C 1588.179688 2489.390625 1606.96875 2493.078125 1624.46875 2500.519531 C 1639.191406 2506.789062 1653.648438 2517.601562 1667.78125 2532.851562 Z M 1827.199219 2489.390625 C 1859.800781 2489.390625 1887.851562 2501.21875 1911.300781 2524.820312 C 1934.800781 2548.429688 1946.519531 2577.230469 1946.519531 2611.171875 C 1946.519531 2644.839844 1934.960938 2673.320312 1911.78125 2696.601562 C 1888.648438 2719.890625 1860.550781 2731.558594 1827.519531 2731.558594 C 1792.890625 2731.558594 1764.140625 2719.570312 1741.289062 2695.640625 C 1718.371094 2671.710938 1706.921875 2643.289062 1706.921875 2610.371094 C 1706.921875 2588.359375 1712.269531 2568.078125 1722.921875 2549.558594 C 1733.578125 2531.089844 1748.238281 2516.421875 1766.871094 2505.609375 C 1785.550781 2494.789062 1805.679688 2489.390625 1827.199219 2489.390625 Z M 1826.558594 2532.429688 C 1805.308594 2532.429688 1787.429688 2539.871094 1772.980469 2554.691406 C 1758.46875 2569.519531 1751.238281 2588.359375 1751.238281 2611.269531 C 1751.238281 2636.761719 1760.339844 2656.941406 1778.601562 2671.761719 C 1792.78125 2683.378906 1809 2689.160156 1827.359375 2689.160156 C 1848.078125 2689.160156 1865.738281 2681.609375 1880.300781 2666.570312 C 1894.921875 2651.53125 1902.199219 2633.011719 1902.199219 2610.949219 C 1902.199219 2589.011719 1894.859375 2570.429688 1880.140625 2555.230469 C 1865.46875 2540.03125 1847.601562 2532.429688 1826.558594 2532.429688 Z M 2072.589844 2495.171875 L 2114.238281 2495.171875 L 2213.589844 2646.929688 L 2213.589844 2495.171875 L 2257.269531 2495.171875 L 2257.269531 2725.769531 L 2215.300781 2725.769531 L 2116.269531 2574.5 L 2116.269531 2725.769531 L 2072.589844 2725.769531 Z M 2374.511719 2495.171875 L 2418.730469 2495.171875 L 2507.480469 2725.769531 L 2461.820312 2725.769531 L 2443.828125 2678.238281 L 2349.300781 2678.238281 L 2330.878906 2725.769531 L 2285.21875 2725.769531 Z M 2396.671875 2556.460938 L 2365.410156 2635.851562 L 2427.769531 2635.851562 Z M 2557.859375 2495.171875 L 2600.421875 2495.171875 L 2654.109375 2656.03125 L 2708.070312 2495.171875 L 2750.511719 2495.171875 L 2789.160156 2725.769531 L 2746.820312 2725.769531 L 2722.199219 2580.121094 L 2673.378906 2725.769531 L 2634.621094 2725.769531 L 2586.019531 2580.121094 L 2560.910156 2725.769531 L 2518.089844 2725.769531 Z M 2819.261719 2495.171875 L 2945.160156 2495.171875 L 2945.160156 2538.210938 L 2862.941406 2538.210938 L 2862.941406 2579.640625 L 2945.160156 2579.640625 L 2945.160156 2622.03125 L 2862.941406 2622.03125 L 2862.941406 2682.738281 L 2945.160156 2682.738281 L 2945.160156 2725.769531 L 2819.261719 2725.769531 L 2819.261719 2495.171875 "/>
<path fill-rule="nonzero" fill="rgb(0%, 0%, 0%)" fill-opacity="1" d="M 1328.488281 2808.378906 L 1344.988281 2808.378906 L 1360.050781 2837.488281 L 1375.101562 2808.378906 L 1391.609375 2808.378906 L 1367.839844 2854.328125 L 1367.839844 2889.449219 L 1352.261719 2889.449219 L 1352.261719 2854.328125 Z M 1462.320312 2806.339844 C 1473.78125 2806.339844 1483.640625 2810.5 1491.878906 2818.800781 C 1500.140625 2827.101562 1504.261719 2837.230469 1504.261719 2849.160156 C 1504.261719 2861 1500.199219 2871.011719 1492.050781 2879.191406 C 1483.921875 2887.378906 1474.039062 2891.480469 1462.429688 2891.480469 C 1450.25 2891.480469 1440.148438 2887.269531 1432.109375 2878.859375 C 1424.058594 2870.441406 1420.03125 2860.449219 1420.03125 2848.878906 C 1420.03125 2841.140625 1421.910156 2834.011719 1425.660156 2827.5 C 1429.398438 2821 1434.558594 2815.851562 1441.109375 2812.050781 C 1447.671875 2808.238281 1454.75 2806.339844 1462.320312 2806.339844 Z M 1462.089844 2821.46875 C 1454.621094 2821.46875 1448.328125 2824.089844 1443.25 2829.300781 C 1438.148438 2834.519531 1435.609375 2841.140625 1435.609375 2849.199219 C 1435.609375 2858.148438 1438.808594 2865.25 1445.230469 2870.460938 C 1450.210938 2874.550781 1455.921875 2876.578125 1462.371094 2876.578125 C 1469.660156 2876.578125 1475.871094 2873.921875 1480.980469 2868.640625 C 1486.121094 2863.351562 1488.679688 2856.839844 1488.679688 2849.078125 C 1488.679688 2841.371094 1486.101562 2834.839844 1480.929688 2829.488281 C 1475.769531 2824.148438 1469.488281 2821.46875 1462.089844 2821.46875 Z M 1538.121094 2808.378906 L 1553.589844 2808.378906 L 1553.589844 2860.828125 C 1553.589844 2865.339844 1553.988281 2868.539062 1554.78125 2870.410156 C 1555.570312 2872.289062 1556.871094 2873.769531 1558.691406 2874.898438 C 1560.519531 2876.011719 1562.71875 2876.578125 1565.28125 2876.578125 C 1568.011719 2876.578125 1570.339844 2875.960938 1572.320312 2874.699219 C 1574.300781 2873.449219 1575.648438 2871.871094 1576.398438 2869.929688 C 1577.160156 2868.019531 1577.53125 2864.328125 1577.53125 2858.890625 L 1577.53125 2808.378906 L 1593 2808.378906 L 1593 2856.710938 C 1593 2864.871094 1592.550781 2870.519531 1591.628906 2873.679688 C 1590.710938 2876.839844 1588.960938 2879.890625 1586.359375 2882.828125 C 1583.78125 2885.761719 1580.789062 2887.949219 1577.398438 2889.359375 C 1574.03125 2890.769531 1570.101562 2891.480469 1565.621094 2891.480469 C 1559.75 2891.480469 1554.628906 2890.128906 1550.28125 2887.441406 C 1545.921875 2884.730469 1542.808594 2881.359375 1540.929688 2877.289062 C 1539.070312 2873.230469 1538.121094 2866.378906 1538.121094 2856.710938 Z M 1631.75 2808.378906 L 1648.148438 2808.378906 C 1657.101562 2808.378906 1663.5 2809.171875 1667.308594 2810.769531 C 1671.128906 2812.371094 1674.171875 2815.039062 1676.488281 2818.75 C 1678.800781 2822.449219 1679.96875 2826.839844 1679.96875 2831.921875 C 1679.96875 2837.25 1678.691406 2841.710938 1676.148438 2845.28125 C 1673.589844 2848.878906 1669.75 2851.589844 1664.609375 2853.410156 L 1683.75 2889.449219 L 1666.890625 2889.449219 L 1648.671875 2855.121094 L 1647.109375 2855.121094 L 1647.109375 2889.449219 L 1631.75 2889.449219 Z M 1647.109375 2840.109375 L 1652 2840.109375 C 1656.96875 2840.109375 1660.378906 2839.46875 1662.261719 2838.171875 C 1664.121094 2836.871094 1665.070312 2834.71875 1665.070312 2831.710938 C 1665.070312 2829.941406 1664.589844 2828.398438 1663.671875 2827.078125 C 1662.75 2825.769531 1661.511719 2824.820312 1659.949219 2824.261719 C 1658.398438 2823.679688 1655.539062 2823.390625 1651.378906 2823.390625 L 1647.109375 2823.390625 Z M 1739.691406 2808.378906 L 1784.519531 2808.378906 L 1784.519531 2823.621094 L 1769.71875 2823.621094 L 1769.71875 2889.449219 L 1754.03125 2889.449219 L 1754.03125 2823.621094 L 1739.691406 2823.621094 Z M 1839.570312 2808.378906 L 1855.109375 2808.378906 L 1886.308594 2889.449219 L 1870.261719 2889.449219 L 1863.941406 2872.738281 L 1830.699219 2872.738281 L 1824.230469 2889.449219 L 1808.179688 2889.449219 Z M 1847.359375 2829.921875 L 1836.371094 2857.828125 L 1858.289062 2857.828125 Z M 1993.019531 2821.621094 L 1982.171875 2832.371094 C 1975.300781 2825.109375 1967.28125 2821.46875 1958.128906 2821.46875 C 1950.171875 2821.46875 1943.488281 2824.109375 1938.109375 2829.398438 C 1932.730469 2834.691406 1930.039062 2841.101562 1930.039062 2848.671875 C 1930.039062 2856.480469 1932.820312 2863.101562 1938.410156 2868.539062 C 1944 2873.980469 1950.890625 2876.691406 1959.070312 2876.691406 C 1964.398438 2876.691406 1968.898438 2875.558594 1972.550781 2873.320312 C 1976.199219 2871.078125 1979.148438 2867.578125 1981.390625 2862.800781 L 1957.929688 2862.800781 L 1957.929688 2848.351562 L 1998.691406 2848.351562 L 1998.800781 2851.761719 C 1998.800781 2858.851562 1996.960938 2865.570312 1993.289062 2871.929688 C 1989.601562 2878.269531 1984.839844 2883.128906 1979 2886.480469 C 1973.148438 2889.808594 1966.28125 2891.480469 1958.410156 2891.480469 C 1950 2891.480469 1942.488281 2889.660156 1935.890625 2886.011719 C 1929.28125 2882.339844 1924.070312 2877.140625 1920.210938 2870.390625 C 1916.371094 2863.609375 1914.449219 2856.328125 1914.449219 2848.5 C 1914.449219 2837.769531 1918.011719 2828.441406 1925.109375 2820.511719 C 1933.519531 2811.070312 1944.488281 2806.339844 1957.980469 2806.339844 C 1965.039062 2806.339844 1971.648438 2807.640625 1977.800781 2810.261719 C 1982.96875 2812.460938 1988.058594 2816.261719 1993.019531 2821.621094 Z M 2032.550781 2808.378906 L 2047.910156 2808.378906 L 2047.910156 2874.769531 L 2070.601562 2874.769531 L 2070.601562 2889.449219 L 2032.550781 2889.449219 Z M 2100.980469 2808.378906 L 2116.339844 2808.378906 L 2116.339844 2889.449219 L 2100.980469 2889.449219 Z M 2153.578125 2808.378906 L 2168.230469 2808.378906 L 2203.148438 2861.730469 L 2203.148438 2808.378906 L 2218.511719 2808.378906 L 2218.511719 2889.449219 L 2203.761719 2889.449219 L 2168.941406 2836.269531 L 2168.941406 2889.449219 L 2153.578125 2889.449219 Z M 2256.871094 2808.378906 L 2301.128906 2808.378906 L 2301.128906 2823.511719 L 2272.230469 2823.511719 L 2272.230469 2838.070312 L 2301.128906 2838.070312 L 2301.128906 2852.980469 L 2272.230469 2852.980469 L 2272.230469 2874.320312 L 2301.128906 2874.320312 L 2301.128906 2889.449219 L 2256.871094 2889.449219 Z M 2366.71875 2808.378906 L 2382.421875 2808.378906 L 2382.421875 2838.980469 L 2409.519531 2838.980469 L 2409.519531 2808.378906 L 2425.101562 2808.378906 L 2425.101562 2889.449219 L 2409.519531 2889.449219 L 2409.519531 2853.878906 L 2382.421875 2853.878906 L 2382.421875 2889.449219 L 2366.71875 2889.449219 Z M 2463.511719 2808.378906 L 2507.78125 2808.378906 L 2507.78125 2823.511719 L 2478.871094 2823.511719 L 2478.871094 2838.070312 L 2507.78125 2838.070312 L 2507.78125 2852.980469 L 2478.871094 2852.980469 L 2478.871094 2874.320312 L 2507.78125 2874.320312 L 2507.78125 2889.449219 L 2463.511719 2889.449219 Z M 2542.898438 2808.378906 L 2559.289062 2808.378906 C 2568.25 2808.378906 2574.648438 2809.171875 2578.449219 2810.769531 C 2582.269531 2812.371094 2585.320312 2815.039062 2587.628906 2818.75 C 2589.949219 2822.449219 2591.109375 2826.839844 2591.109375 2831.921875 C 2591.109375 2837.25 2589.828125 2841.710938 2587.289062 2845.28125 C 2584.730469 2848.878906 2580.890625 2851.589844 2575.761719 2853.410156 L 2594.898438 2889.449219 L 2578.03125 2889.449219 L 2559.820312 2855.121094 L 2558.25 2855.121094 L 2558.25 2889.449219 L 2542.898438 2889.449219 Z M 2558.25 2840.109375 L 2563.148438 2840.109375 C 2568.121094 2840.109375 2571.519531 2839.46875 2573.398438 2838.171875 C 2575.269531 2836.871094 2576.210938 2834.71875 2576.210938 2831.710938 C 2576.210938 2829.941406 2575.738281 2828.398438 2574.820312 2827.078125 C 2573.890625 2825.769531 2572.648438 2824.820312 2571.089844 2824.261719 C 2569.550781 2823.679688 2566.691406 2823.390625 2562.53125 2823.390625 L 2558.25 2823.390625 Z M 2627.25 2808.378906 L 2671.511719 2808.378906 L 2671.511719 2823.511719 L 2642.609375 2823.511719 L 2642.609375 2838.070312 L 2671.511719 2838.070312 L 2671.511719 2852.980469 L 2642.609375 2852.980469 L 2642.609375 2874.320312 L 2671.511719 2874.320312 L 2671.511719 2889.449219 L 2627.25 2889.449219 L 2627.25 2808.378906 "/>
<path fill-rule="evenodd" fill="rgb(72.851562%, 82.03125%, 42.358398%)" fill-opacity="1" d="M 1982.960938 1108.519531 C 1904.929688 1199.289062 1839.578125 1285.171875 1785.53125 1366.179688 L 1982.960938 1500.210938 L 1982.960938 1108.519531 "/>
<path fill-rule="evenodd" fill="rgb(72.851562%, 82.03125%, 42.358398%)" fill-opacity="1" d="M 2017.039062 1108.539062 L 2017.039062 1500.199219 L 2214.449219 1366.191406 C 2160.398438 1285.179688 2095.058594 1199.300781 2017.039062 1108.539062 "/>
<path fill-rule="evenodd" fill="rgb(46.679688%, 65.039062%, 28.24707%)" fill-opacity="1" d="M 2228.929688 1388.199219 L 2017.039062 1532.039062 L 2017.039062 1786.578125 L 2333.339844 1571.859375 C 2305.269531 1513.78125 2270.699219 1452.558594 2228.929688 1388.199219 "/>
<path fill-rule="evenodd" fill="rgb(46.679688%, 65.039062%, 28.24707%)" fill-opacity="1" d="M 1982.960938 1532.058594 L 1771.039062 1388.199219 C 1729.269531 1452.550781 1694.710938 1513.769531 1666.628906 1571.851562 L 1982.960938 1786.589844 L 1982.960938 1532.058594 "/>
<path fill-rule="evenodd" fill="rgb(28.24707%, 48.631287%, 27.43988%)" fill-opacity="1" d="M 1982.960938 1818.441406 L 1655.261719 1595.988281 C 1625.019531 1661.828125 1603.21875 1723.539062 1588.808594 1781.101562 L 1596.988281 1786.648438 L 1982.960938 2048.671875 L 1982.960938 1818.441406 "/>
<path fill-rule="evenodd" fill="rgb(28.24707%, 48.631287%, 27.43988%)" fill-opacity="1" d="M 2344.710938 1595.988281 L 2017.039062 1818.429688 L 2017.039062 2048.660156 L 2402.988281 1786.648438 L 2411.171875 1781.101562 C 2396.761719 1723.539062 2374.960938 1661.839844 2344.710938 1595.988281 "/>
<path fill-rule="evenodd" fill="rgb(10.205078%, 25.488281%, 3.140259%)" fill-opacity="1" d="M 1582.46875 1808.640625 C 1502.839844 2180.351562 1739.300781 2370.320312 1982.960938 2378.789062 L 1982.960938 2080.519531 L 1582.46875 1808.640625 "/>
<path fill-rule="evenodd" fill="rgb(10.205078%, 25.488281%, 3.140259%)" fill-opacity="1" d="M 2017.039062 2080.5 L 2017.039062 2378.789062 C 2260.71875 2370.339844 2497.191406 2180.351562 2417.511719 1808.640625 L 2017.039062 2080.5 "/>
</svg>
